<?xml version="1.0" encoding="UTF-8"?>
<svg version="1.1" xmlns="http://www.w3.org/2000/svg" width="512" height="512">
<path d="M0 0 C2.59029173 2.27960432 5.10261039 4.61904159 7.59277344 7.00830078 C9.47469913 8.78895693 11.34067573 10.44567361 13.33886719 12.08251953 C17.1021287 15.23053393 20.09280447 18.70227929 23.20605469 22.48095703 C23.62048828 22.98304687 24.03492188 23.48513672 24.46191406 24.00244141 C31.10213883 32.09910797 37.02061539 40.3574704 42.20605469 49.48095703 C42.56940918 50.11340332 42.93276367 50.74584961 43.30712891 51.39746094 C66.79058592 92.60617123 71.75684729 141.72204786 60.20605469 187.48095703 C54.12562655 209.65227428 44.09629327 230.15332149 29.85839844 248.18798828 C28.01117723 250.28034058 28.01117723 250.28034058 28.20605469 252.48095703 C29.69599835 253.90858403 29.69599835 253.90858403 31.64355469 255.41845703 C52.01708765 272.84555313 63.62380672 300.21216288 66.20605469 326.48095703 C66.95016471 338.49115384 66.95016471 338.49115384 64.97038269 341.12462807 C62.70831358 342.86359602 61.44939686 342.85799275 58.61352539 342.86190796 C57.67135162 342.87036743 56.72917786 342.8788269 55.75845337 342.88754272 C54.21077774 342.87843369 54.21077774 342.87843369 52.63183594 342.86914062 C50.99980728 342.87702606 50.99980728 342.87702606 49.33480835 342.8850708 C45.72924552 342.89830193 42.12412221 342.88952141 38.51855469 342.87939453 C36.01896072 342.88141436 33.51936733 342.88432504 31.01977539 342.88809204 C25.77746067 342.89251962 20.53526081 342.88635531 15.29296875 342.87207031 C9.2313372 342.85574344 3.17000835 342.86103189 -2.89161587 342.87754953 C-8.72169395 342.89280062 -14.55165692 342.89119054 -20.38174438 342.88240433 C-22.86333254 342.88039905 -25.34492839 342.88287303 -27.82650757 342.88984299 C-31.29112391 342.89743776 -34.75515403 342.88588032 -38.21972656 342.86914062 C-39.25151031 342.87521332 -40.28329407 342.88128601 -41.34634399 342.88754272 C-42.28851776 342.87908325 -43.23069153 342.87062378 -44.20141602 342.86190796 C-45.02068069 342.86077688 -45.83994537 342.85964581 -46.68403625 342.85848045 C-49.3267991 342.38561416 -50.21408186 341.62541004 -51.79394531 339.48095703 C-52.13452148 336.29467773 -52.13452148 336.29467773 -52.08691406 332.40673828 C-52.08266922 331.72290573 -52.07842438 331.03907318 -52.0740509 330.33451843 C-52.05727884 328.15376142 -52.01963188 325.97393394 -51.98144531 323.79345703 C-51.96639645 322.31365269 -51.9527084 320.83383383 -51.94042969 319.35400391 C-51.907381 315.72935367 -51.85560977 312.10524609 -51.79394531 308.48095703 C-55.09394531 309.47095703 -58.39394531 310.46095703 -61.79394531 311.48095703 C-61.79394531 325.01095703 -61.79394531 338.54095703 -61.79394531 352.48095703 C-58.68947998 352.4704834 -55.58501465 352.46000977 -52.38647461 352.44921875 C-42.14459184 352.41612174 -31.90270675 352.39400445 -21.66078472 352.37733269 C-15.44936488 352.3668827 -9.2379997 352.35270131 -3.02661133 352.33007812 C2.96449002 352.30839312 8.9555387 352.29639757 14.94667625 352.29120255 C17.23568743 352.28749897 19.52469563 352.28026712 21.81368446 352.26949692 C25.01265381 352.25503979 28.21140378 352.25297667 31.41040039 352.25390625 C32.36274063 352.2467157 33.31508087 352.23952515 34.29627991 352.2321167 C35.6024527 352.23624069 35.6024527 352.23624069 36.93501282 352.240448 C37.69180486 352.23860441 38.4485969 352.23676083 39.22832203 352.23486137 C41.20605469 352.48095703 41.20605469 352.48095703 44.20605469 354.48095703 C44.51769821 357.30102535 44.63120376 359.84938334 44.58105469 362.66845703 C44.57162842 363.47710205 44.56220215 364.28574707 44.55249023 365.11889648 C43.80552049 395.43515446 28.80715257 422.09091723 7.35058594 442.61376953 C3.25641786 446.4117219 -1.01890987 449.58351685 -5.79394531 452.48095703 C-6.35388184 452.83109863 -6.91381836 453.18124023 -7.49072266 453.54199219 C-32.19515568 468.87690473 -62.18517637 474.71465721 -90.79394531 468.48095703 C-109.23861575 464.10203506 -125.18824844 456.63174157 -139.79394531 444.48095703 C-140.72722656 443.71138672 -141.66050781 442.94181641 -142.62207031 442.14892578 C-163.41863486 424.16977291 -177.5869925 396.47026744 -179.70019531 368.94580078 C-179.74660156 367.72570312 -179.74660156 367.72570312 -179.79394531 366.48095703 C-179.87128906 364.65757812 -179.87128906 364.65757812 -179.95019531 362.79736328 C-180.44655781 345.34058149 -176.71429721 329.80623875 -170.79394531 313.48095703 C-170.46394531 312.49095703 -170.13394531 311.50095703 -169.79394531 310.48095703 C-170.68210937 310.18705078 -171.57027344 309.89314453 -172.48535156 309.59033203 C-181.26351911 306.55457349 -189.49721874 302.77846187 -197.73144531 298.48095703 C-198.68929932 297.98305664 -199.64715332 297.48515625 -200.6340332 296.97216797 C-206.60231987 293.80745793 -212.25284168 290.3445731 -217.79394531 286.48095703 C-224.15329394 289.48108534 -229.91465328 294.58296384 -233.79394531 300.48095703 C-234.88594209 304.33339175 -235.22102242 307.81637615 -235.47363281 311.80517578 C-236.90174944 328.19368492 -251.20916883 339.04937938 -262.09985352 349.99560547 C-263.31338252 351.21869782 -264.52674649 352.44195393 -265.73995972 353.6653595 C-269.68770877 357.64417445 -273.64072888 361.61772789 -277.59472656 365.59033203 C-278.2704256 366.26932839 -278.94612464 366.94832476 -279.64229941 367.64789677 C-286.02699859 374.06333481 -292.41373442 380.47673891 -298.80531025 386.88532639 C-306.94255919 395.04450163 -315.06956378 403.21359292 -323.182998 411.39645171 C-328.91205563 417.17284456 -334.65265047 422.93761179 -340.401797 428.69401002 C-343.82569436 432.12284369 -347.24442724 435.55646927 -350.65078163 439.00273895 C-353.85444663 442.24345823 -357.07226743 445.46943896 -360.30111313 448.68506432 C-361.47691159 449.86091639 -362.64767175 451.04183396 -363.81267738 452.2283802 C-374.27492979 462.87350949 -385.34314585 470.30362072 -400.60644531 470.79345703 C-412.18289833 470.54591024 -421.78555565 466.67002083 -430.54394531 459.10595703 C-440.39354542 447.6147569 -444.80643931 436.78086634 -443.79394531 421.48095703 C-441.45048333 406.86410939 -432.35486458 397.44955933 -422.26196289 387.41552734 C-420.98748244 386.13397757 -419.71384404 384.85158992 -418.440979 383.56843567 C-415.00173865 380.10680634 -411.55001399 376.6578918 -408.09511781 373.21189594 C-405.20375006 370.32565943 -402.31863476 367.43321298 -399.4334709 364.54077697 C-392.62343197 357.71377252 -385.80321683 350.89705627 -378.97631836 344.08691406 C-371.95083821 337.07835577 -364.94189653 330.05357005 -357.94104463 323.02041745 C-351.9125506 316.96517271 -345.8743327 310.91974834 -339.82821387 304.88210177 C-336.22476995 301.28357052 -332.62493058 297.68162178 -329.03425026 294.07035065 C-325.65632984 290.67398686 -322.26633483 287.29014293 -318.86695862 283.91525841 C-317.62717034 282.68045034 -316.39154932 281.44144057 -315.16063499 280.19778633 C-306.17806555 271.12969367 -297.04729506 262.94580095 -283.79394531 261.48095703 C-282.66085937 261.56023437 -282.66085937 261.56023437 -281.50488281 261.64111328 C-276.4505982 261.83044316 -273.75624641 260.67907696 -270.04785156 257.30517578 C-266.48625758 253.82988282 -263.09654484 250.20228667 -259.79394531 246.48095703 C-261.32394028 242.20502372 -263.52955039 238.50289582 -265.91894531 234.66845703 C-291.02641906 193.34933846 -299.0530656 144.50777748 -288.04394531 97.32861328 C-282.43414869 74.85734462 -273.14853397 54.38173963 -259.79394531 35.48095703 C-259.37983398 34.89040527 -258.96572266 34.29985352 -258.5390625 33.69140625 C-231.25822976 -4.59116919 -189.27618889 -29.24480482 -143.37670898 -37.3659668 C-93.49011212 -45.65430581 -38.96601877 -32.99490593 0 0 Z " fill="#1370FF" transform="translate(444.7939453125,40.51904296875)"/>
<path d="M0 0 C0.85110352 0.23605957 1.70220703 0.47211914 2.57910156 0.71533203 C38.04255268 10.85989357 66.86720418 33.39302509 85.08349609 65.55249023 C90.02805424 74.52278094 93.80171845 83.82633186 96.75 93.625 C96.94875732 94.28089111 97.14751465 94.93678223 97.35229492 95.61254883 C100.71366639 107.35069427 101.40702374 118.98978028 101.375 131.125 C101.37418427 132.28852493 101.37418427 132.28852493 101.37335205 133.47555542 C101.33838811 144.31843259 100.96344996 154.62864589 97.62841797 165.03710938 C96.9611286 167.12141649 96.37294859 169.22011557 95.78515625 171.328125 C90.5160328 189.35428105 81.38454102 207.61545898 68 221 C64.53656233 220.75261159 61.28524178 220.32070761 57.91796875 219.48046875 C51.89835989 218.01509987 46.1041994 217.81307242 39.9375 217.8125 C39.07922607 217.8117749 38.22095215 217.8110498 37.33666992 217.81030273 C33.35005771 217.45328156 33.35005771 217.45328156 30 219 C29.84019563 221.44608998 29.74070553 223.86731058 29.68359375 226.31640625 C29.6524221 227.41298805 29.6524221 227.41298805 29.62062073 228.53172302 C29.55504976 230.87521656 29.49620568 233.21882539 29.4375 235.5625 C29.39432192 237.14779855 29.35070787 238.73308529 29.30664062 240.31835938 C29.1993608 244.21212037 29.0981151 248.10599772 29 252 C27.5437455 252.67119549 26.08492133 253.33681807 24.625 254 C23.81289063 254.37125 23.00078125 254.7425 22.1640625 255.125 C20 256 20 256 18 256 C17.94392578 254.53626953 17.94392578 254.53626953 17.88671875 253.04296875 C17.82097656 251.77066406 17.75523437 250.49835938 17.6875 249.1875 C17.62949219 247.92292969 17.57148438 246.65835938 17.51171875 245.35546875 C17.23757847 242.1107881 17.23757847 242.1107881 15.82421875 240.0703125 C8.81100698 235.95549446 -4.46309873 239.25050167 -12 241 C-27.82447794 245.26609866 -43.84502852 251.1434348 -55.71484375 262.8828125 C-61.66252844 265.79056946 -69.65369432 262.46214946 -75.5625 260.4375 C-76.33408447 260.17573975 -77.10566895 259.91397949 -77.90063477 259.64428711 C-94.19291155 253.91709301 -108.8254562 245.12469582 -122 234 C-122.78503906 233.33871094 -123.57007813 232.67742187 -124.37890625 231.99609375 C-151.83041073 208.26052896 -166.48028224 173.13810623 -169.19335938 137.45703125 C-170.21812016 118.77371139 -167.18434363 99.30733818 -160 82 C-159.6999707 81.27393555 -159.39994141 80.54787109 -159.09082031 79.79980469 C-144.56089348 45.4472136 -117.777419 19.54546022 -83.58105469 5.01367188 C-57.07572564 -5.39591252 -27.5024799 -7.72086951 0 0 Z " fill="#FCFDFF" transform="translate(365,49)"/>
<path d="M0 0 C0.00808685 1.28595062 0.01617371 2.57190125 0.02450562 3.89682007 C0.10186099 15.99295853 0.18957308 28.08898304 0.28752708 40.18497276 C0.33755523 46.4042168 0.38388456 52.6234433 0.421875 58.84277344 C0.45864559 64.84043768 0.5049828 70.83795751 0.55806351 76.83549881 C0.57665132 79.12809348 0.5917429 81.42071916 0.60334396 83.71335983 C0.62013152 86.91501528 0.64914807 90.1163368 0.68115234 93.31787109 C0.68331253 94.27380661 0.68547272 95.22974213 0.68769836 96.21464539 C0.69886185 97.08405258 0.71002533 97.95345978 0.7215271 98.84921265 C0.72705786 99.60692648 0.73258862 100.36464031 0.73828697 101.14531517 C0.84512486 103.24603811 0.84512486 103.24603811 3 105 C4.92145652 105.31290632 4.92145652 105.31290632 7.15078735 105.2784729 C8.45489815 105.29521812 8.45489815 105.29521812 9.78535461 105.31230164 C10.74129013 105.31446182 11.69722565 105.31662201 12.68212891 105.31884766 C13.68703873 105.32889328 14.69194855 105.3389389 15.72731018 105.34928894 C19.06038828 105.3802653 22.39338554 105.39719618 25.7265625 105.4140625 C28.03299665 105.43276252 30.33942388 105.45233504 32.64584351 105.4727478 C38.72525969 105.52419815 44.80469808 105.56375471 50.88421631 105.60089111 C57.08432569 105.64085005 63.28434164 105.69197928 69.484375 105.7421875 C81.65618449 105.83909949 93.82804658 105.92345523 106 106 C105.86477619 108.21778384 105.72283903 110.43515894 105.578125 112.65234375 C105.49981445 113.88718506 105.42150391 115.12202637 105.34082031 116.39428711 C104.8570593 121.512243 103.63946039 126.14335583 102 131 C101.49146484 132.52367187 101.49146484 132.52367187 100.97265625 134.078125 C91.98077999 159.1463861 74.14892984 179.46234129 50.6015625 191.77734375 C25.26754953 203.38138466 -2.80459883 205.84493712 -29.125 196.25 C-40.62145454 191.81676295 -50.68780328 186.09690188 -60 178 C-60.82113281 177.32324219 -61.64226562 176.64648438 -62.48828125 175.94921875 C-82.14751474 159.22511188 -94.06303845 134.19169777 -96.20068359 108.59716797 C-97.84911042 81.89473338 -89.74051074 55.39570778 -71.9543457 35.21044922 C-53.14114207 14.62515466 -28.47767533 -0.07038716 0 0 Z " fill="#D6E8FF" transform="translate(372,298)"/>
<path d="M0 0 C8.87826485 7.60440814 16.99782158 15.60746754 24 25 C24.39493652 25.51997559 24.78987305 26.03995117 25.19677734 26.57568359 C47.4238712 55.94317719 59.37718263 90.01635484 59.37060547 126.88134766 C59.37495985 129.59993087 59.41134852 132.31686035 59.44921875 135.03515625 C59.52665942 147.1491673 58.04141559 158.28247316 55 170 C54.70140327 171.15072243 54.70140327 171.15072243 54.39677429 172.32469177 C51.5819871 183.02445949 47.8158762 193.04097824 43 203 C42.49726562 204.04438232 42.49726562 204.04438232 41.984375 205.10986328 C36.70348983 215.92533287 30.38877775 225.51198073 23 235 C22.05898438 234.45730469 21.11796875 233.91460937 20.1484375 233.35546875 C18.89067537 232.63272484 17.63286003 231.91007352 16.375 231.1875 C15.75753906 230.83107422 15.14007813 230.47464844 14.50390625 230.10742188 C10.72734494 227.94086828 6.91552228 225.9095701 3 224 C3.32871094 223.51273437 3.65742188 223.02546875 3.99609375 222.5234375 C5.03509298 220.97479367 6.06823713 219.42221592 7.09765625 217.8671875 C8.42658843 215.86423838 9.76884538 213.87009464 11.12109375 211.8828125 C16.69876605 203.57371767 21.15414222 194.99594402 25.18798828 185.84179688 C25.85889135 184.32006122 26.54986421 182.80719111 27.24609375 181.296875 C34.29744878 165.16381368 36.39894215 146.38961681 36.375 129 C36.37445618 128.32635406 36.37391235 127.65270813 36.37335205 126.95864868 C36.285017 103.00606908 30.3597395 80.81781857 18.96289062 59.77832031 C18.08737104 58.16136172 17.23752418 56.53056844 16.390625 54.8984375 C-1.35465949 22.30685064 -33.47777446 0.24934732 -68.375 -10.375 C-69.55002075 -10.73307739 -69.55002075 -10.73307739 -70.7487793 -11.09838867 C-83.14078649 -14.67761147 -95.1901486 -15.4054912 -108 -15.375 C-109.22822479 -15.37468277 -109.22822479 -15.37468277 -110.48126221 -15.37435913 C-123.04745377 -15.34196333 -134.88647178 -14.59477294 -147 -11 C-147.98154053 -10.72712158 -147.98154053 -10.72712158 -148.98291016 -10.44873047 C-169.01445949 -4.81532918 -187.24454624 5.51020654 -203 19 C-203.83144531 19.70898438 -204.66289062 20.41796875 -205.51953125 21.1484375 C-226.76879971 39.75378777 -241.03687299 64.10613384 -248.75 91.125 C-248.94883789 91.8164209 -249.14767578 92.5078418 -249.35253906 93.22021484 C-252.48018132 104.75708393 -253.36367017 116.20531766 -253.3125 128.125 C-253.30976578 129.13930588 -253.30976578 129.13930588 -253.30697632 130.17410278 C-253.12695372 169.9919341 -237.18316025 206.81683975 -209 235 C-205.46835135 238.19429714 -201.80192816 241.13440597 -198 244 C-196.55560547 245.09248047 -196.55560547 245.09248047 -195.08203125 246.20703125 C-182.02475801 255.65659148 -167.85512087 262.86244192 -152.5390625 267.84375 C-149.63324325 268.79311258 -146.81965318 269.82423728 -144 271 C-144.3403125 271.44988281 -144.680625 271.89976562 -145.03125 272.36328125 C-149.4233902 278.192212 -153.7189713 284.08913804 -158 290 C-166.22537018 288.07489176 -173.60068041 285.19029598 -181.1875 281.5 C-182.28030273 280.97027588 -183.37310547 280.44055176 -184.49902344 279.89477539 C-193.62549857 275.36991265 -201.98094845 270.27232745 -210 264 C-210.84860596 263.33750244 -210.84860596 263.33750244 -211.71435547 262.66162109 C-215.60470491 259.57927596 -219.33940431 256.35110587 -223 253 C-223.53189941 252.51337891 -224.06379883 252.02675781 -224.61181641 251.52539062 C-238.46182315 238.66912498 -249.45335423 223.82900624 -258 207 C-258.31662598 206.38447266 -258.63325195 205.76894531 -258.95947266 205.13476562 C-269.41856766 184.57704573 -276.06923582 161.51282295 -276.203125 138.37109375 C-276.20882507 137.57832535 -276.21452515 136.78555695 -276.22039795 135.96876526 C-276.2297749 134.30072329 -276.23635252 132.63266341 -276.24023438 130.96459961 C-276.24988372 128.46758984 -276.28095401 125.97142496 -276.3125 123.47460938 C-276.38208359 112.93112897 -275.35243669 103.28827122 -273 93 C-272.81179688 92.11320557 -272.62359375 91.22641113 -272.4296875 90.31274414 C-266.41010444 62.7043732 -252.62179452 36.90316717 -233.2265625 16.40234375 C-230.961512 14.01914896 -230.961512 14.01914896 -228.921875 11.38671875 C-226.00369159 7.76271455 -222.57709496 4.95862527 -219 2 C-217.98679688 1.16082031 -216.97359375 0.32164063 -215.9296875 -0.54296875 C-153.31456559 -51.51745728 -62.40848815 -51.83806967 0 0 Z " fill="#92C0FF" transform="translate(440,51)"/>
<path d="M0 0 C6.07602526 4.67166093 10.61044397 12.34642256 12.25 19.8125 C13.23618402 27.7871979 11.94971633 34.69439356 8.25 41.8125 C1.94041141 49.86282564 -5.72685298 56.94391009 -12.95166016 64.17529297 C-14.15362505 65.38189817 -15.35539661 66.58869597 -16.55699158 67.79566956 C-19.79193233 71.04360631 -23.03009304 74.28831283 -26.26930285 77.53199148 C-28.29655044 79.56218633 -30.32321659 81.59295991 -32.34971237 83.62390518 C-38.70178587 89.98961022 -45.05582604 96.35334224 -51.41277945 102.71417415 C-58.73199916 110.03788572 -66.04460926 117.36811408 -73.35161555 124.70401084 C-79.01789453 130.39191031 -84.68992911 136.07402803 -90.36636007 141.75179589 C-93.74983124 145.13631337 -97.13084512 148.52320036 -100.50587845 151.91613388 C-103.67584364 155.10258946 -106.85290662 158.28179346 -110.03550911 161.45562553 C-111.19947268 162.61881968 -112.36089108 163.78456734 -113.51951027 164.95308495 C-115.1058663 166.55219316 -116.70129076 168.14169051 -118.29922485 169.72921753 C-119.18812723 170.61958647 -120.07702961 171.50995541 -120.99286842 172.42730522 C-128.31608406 178.76261974 -136.27101867 181.33635439 -145.9140625 181.125 C-153.74655838 180.26191505 -161.215272 176.3947364 -166.75 170.8125 C-173.25375588 161.93848643 -175.84815318 153.80793244 -174.75 142.8125 C-171.61069312 129.89810585 -161.06323258 120.82883146 -151.99072266 111.77856445 C-150.81178543 110.59527166 -149.63326409 109.41156439 -148.4551239 108.22747803 C-145.27589089 105.03493762 -142.09036937 101.84874534 -138.90320635 98.66412377 C-136.23497215 95.99696447 -133.56973206 93.32682286 -130.90442598 90.65673798 C-124.61407503 84.35532139 -118.31844764 78.05921108 -112.01953125 71.76635742 C-105.53686972 65.28973983 -99.06345074 58.80398816 -92.59446108 52.31371719 C-87.02343112 46.72503979 -81.44657723 41.14222076 -75.86509168 35.56398553 C-72.53879681 32.23949792 -69.21473198 28.91285775 -65.89632034 25.58049965 C-62.77572974 22.44728337 -59.64789253 19.32148238 -56.51449013 16.20108032 C-55.37073407 15.0596789 -54.22949095 13.91575248 -53.09106636 12.76903343 C-37.46059771 -2.96701653 -21.19088495 -13.35443078 0 0 Z " fill="#D5E8FF" transform="translate(186.75,319.1875)"/>
<path d="M0 0 C29.66589611 2.69689965 54.99695749 14.94485305 74.3125 37.875 C87.4033296 55.12733543 95 74.28130459 95 96 C63.65 96 32.3 96 0 96 C0 64.32 0 32.64 0 0 Z " fill="#FDFEFF" transform="translate(404,276)"/>
<path d="M0 0 C5.68839997 3.12304312 9.59565213 6.28696639 11.82421875 12.53515625 C12.1875 14.75 12.1875 14.75 11.72265625 17.52734375 C11.1387958 21.43100575 11.1003893 23.92237831 12.1875 27.75 C16.59544735 33.02524227 22.5179313 36.93981611 28.1875 40.75 C28.950625 40.440625 29.71375 40.13125 30.5 39.8125 C36.91268481 37.27725252 43.59284183 36.36728717 50.125 39.125 C53.1875 40.75 53.1875 40.75 56.1875 42.75 C60.0345556 42.40026767 62.99230779 40.98375562 66.375 39.1875 C70.98070113 36.75 70.98070113 36.75 73.1875 36.75 C73.15269531 36.02554688 73.11789062 35.30109375 73.08203125 34.5546875 C72.87563832 27.18351153 73.51804842 22.86436017 78.4375 17.125 C84.12063517 12.21683781 88.1671028 10.0167757 95.69921875 10.37109375 C102.46138511 11.40081139 106.72605335 14.76386446 110.9609375 19.96875 C114.53361814 25.15710151 115.03141998 29.54052565 114.1875 35.75 C112.11939159 42.39680423 109.17410008 46.56471864 103.0546875 49.91015625 C97.96142652 52.20105816 92.55273795 52.74280966 87.1484375 51.1484375 C84.28110903 49.94049912 81.77622327 48.47581551 79.1875 46.75 C73.30325083 47.31275537 67.69541247 49.99340628 63.1875 53.75 C62.33995826 56.36689435 62.31141701 58.48096178 62.33203125 61.22265625 C62.04867891 66.17749311 59.05883152 69.8197289 55.69921875 73.28515625 C50.39681336 77.98470418 45.69878566 79.28401307 38.75 79.12890625 C33.11692564 78.2959669 29.01356454 74.91504639 25.3125 70.75 C21.08717866 64.78484046 20.68542269 59.93087318 21.1875 52.75 C21.48492117 51.40819914 21.80630843 50.0704476 22.1875 48.75 C21.65511719 48.52957031 21.12273437 48.30914062 20.57421875 48.08203125 C17.97468968 46.63123025 15.90523348 44.81714525 13.6706543 42.86474609 C8.76565356 38.38281547 8.76565356 38.38281547 2.6171875 36.76171875 C0.35769949 37.58675528 0.35769949 37.58675528 -1.765625 38.71875 C-5.76037443 40.73137185 -9.83639347 40.33978137 -14.08984375 39.0703125 C-16.0209119 38.35761599 -17.92054304 37.5608387 -19.8125 36.75 C-20.04582031 37.32105469 -20.27914062 37.89210937 -20.51953125 38.48046875 C-22.12208312 41.29340722 -24.05012181 42.9502773 -26.5 45.0625 C-27.386875 45.84753906 -28.27375 46.63257813 -29.1875 47.44140625 C-30.81019602 48.86850944 -32.43480914 50.2934401 -34.0625 51.71484375 C-34.701875 52.30394531 -35.34125 52.89304688 -36 53.5 C-36.57105469 54.01046875 -37.14210938 54.5209375 -37.73046875 55.046875 C-39.0690205 56.7527465 -39.0690205 56.7527465 -38.5078125 59.12109375 C-38.16363281 60.42240234 -38.16363281 60.42240234 -37.8125 61.75 C-37.16072587 68.89814579 -37.39526061 74.86890803 -41.8125 80.75 C-46.83988053 85.9830461 -50.65328147 87.9010672 -58 88.125 C-64.20942771 88.05592961 -68.34395399 87.17629025 -72.8125 82.75 C-77.81184902 76.19696857 -79.67046824 71.0034128 -78.8125 62.75 C-76.79288844 56.06797089 -72.84770251 52.2841425 -67.02734375 48.62890625 C-64.06063106 47.45163931 -61.55813305 47.52202085 -58.375 47.5625 C-57.26253906 47.56894531 -56.15007812 47.57539063 -55.00390625 47.58203125 C-51.8125 47.75 -51.8125 47.75 -49.33984375 48.6796875 C-46.15622232 48.76825811 -45.70491008 48.06647107 -43.4375 45.92578125 C-42.21367352 44.65273566 -41.00581861 43.36418622 -39.8125 42.0625 C-38.6064591 40.78559131 -37.39817056 39.51080129 -36.1875 38.23828125 C-35.61668701 37.62976318 -35.04587402 37.02124512 -34.45776367 36.39428711 C-32.8125 34.75 -32.8125 34.75 -29.86328125 32.5234375 C-28.84814453 31.64558594 -28.84814453 31.64558594 -27.8125 30.75 C-27.95638439 27.92027363 -28.28442087 25.50285695 -28.8125 22.75 C-29.74413705 15.94659789 -28.30192082 11.65661823 -24.53515625 5.921875 C-18.65366475 -1.49333878 -8.74267831 -3.53550068 0 0 Z " fill="#1571FF" transform="translate(314.8125,82.25)"/>
<path d="M0 0 C1.03488808 0.00418442 1.03488808 0.00418442 2.09068298 0.00845337 C3.54059381 0.02114913 4.99044576 0.05066518 6.43969727 0.09619141 C8.65046165 0.16400477 10.85664756 0.17818914 13.06835938 0.18359375 C25.07018359 0.34478554 25.07018359 0.34478554 29.58984375 3.7890625 C31.67617123 6.91855372 31.84117338 7.62028349 31.85054016 11.17831421 C31.85762497 12.07552689 31.86470978 12.97273956 31.87200928 13.8971405 C31.86953186 14.87902847 31.86705444 15.86091644 31.86450195 16.87255859 C31.86961288 17.90859726 31.87472382 18.94463593 31.87998962 20.0120697 C31.89391852 23.44560482 31.89292623 26.87893994 31.890625 30.3125 C31.89451037 32.69520137 31.89884471 35.07790204 31.90361023 37.46060181 C31.91107973 42.45910892 31.91077605 47.45754541 31.90551758 52.45605469 C31.89972483 58.86436189 31.91664597 65.27237989 31.93986225 71.68063927 C31.95458896 76.60311577 31.95547268 81.52552249 31.95235252 86.44801712 C31.95286636 88.81073199 31.95811576 91.1734507 31.96816444 93.53614426 C31.98048938 96.83988005 31.97376022 100.14305071 31.9621582 103.44677734 C31.97362381 104.91353661 31.97362381 104.91353661 31.98532104 106.40992737 C31.94699888 111.3425921 31.85459927 114.80821326 28.58984375 118.7890625 C23.82715455 122.29306942 17.04175254 121.19971602 11.37304688 121.21459961 C9.22800204 121.22648956 7.08584385 121.27568845 4.94140625 121.32617188 C3.56642019 121.33563844 2.19141658 121.34287237 0.81640625 121.34765625 C-0.42544434 121.36111084 -1.66729492 121.37456543 -2.94677734 121.38842773 C-7.55717909 120.59056108 -9.14965697 119.10169806 -12.41015625 115.7890625 C-13.33131004 113.02560114 -13.54507235 111.34244099 -13.57078552 108.48919678 C-13.58083115 107.61170273 -13.59087677 106.73420868 -13.60122681 105.8301239 C-13.6070578 104.8700795 -13.61288879 103.9100351 -13.61889648 102.92089844 C-13.62868027 101.9075795 -13.63846405 100.89426056 -13.64854431 99.85023499 C-13.67849882 96.49131587 -13.69988348 93.13243655 -13.71875 89.7734375 C-13.72532183 88.62650673 -13.73189365 87.47957596 -13.73866463 86.29788971 C-13.77125781 80.22741428 -13.79570933 74.15695641 -13.81518555 68.08642578 C-13.83300383 63.06175223 -13.86783362 58.03763931 -13.91772461 53.01318359 C-13.97788842 46.94720984 -14.00865622 40.88175627 -14.01835823 34.81549835 C-14.02692003 32.50462036 -14.04575575 30.19375653 -14.07510185 27.88304901 C-14.11399611 24.64635073 -14.11505303 21.41168103 -14.10717773 18.17480469 C-14.12717834 17.22285721 -14.14717896 16.27090973 -14.16778564 15.29011536 C-14.1043453 9.47321275 -13.03480561 6.3157436 -9.043787 2.03744316 C-6.15954281 -0.1666257 -3.53894985 -0.04865917 0 0 Z " fill="#1772FF" transform="translate(297.41015625,134.2109375)"/>
<path d="M0 0 C1.99919042 -0.00436504 3.99822188 -0.04137983 5.99707031 -0.07861328 C7.26808594 -0.08248047 8.53910156 -0.08634766 9.84863281 -0.09033203 C11.00669434 -0.0985498 12.16475586 -0.10676758 13.35791016 -0.11523438 C17.36043508 0.47766607 19.49793207 1.86095201 22.63769531 4.37060547 C25.27873641 8.33216712 24.92545321 11.75398783 24.91235352 16.35253906 C24.91746445 17.27153488 24.92257538 18.1905307 24.92784119 19.13737488 C24.94176362 22.18133014 24.94077826 25.22505962 24.93847656 28.26904297 C24.94236235 30.38270146 24.94669678 32.49635917 24.95146179 34.61001587 C24.95892994 39.04358448 24.95862864 43.47707348 24.95336914 47.91064453 C24.94757718 53.59255621 24.96449615 59.27414164 24.98771381 64.95599937 C25.00244623 69.32260037 25.00332346 73.68912273 25.00020409 78.05574417 C25.00071766 80.15051545 25.00596211 82.24529109 25.01601601 84.3400383 C25.02835183 87.27020191 25.02160543 90.19972939 25.01000977 93.12988281 C25.02147537 94.42832878 25.02147537 94.42832878 25.03317261 95.75300598 C24.98291649 101.49832961 24.01984139 104.92449343 19.90112305 109.15380859 C15.14978336 111.70808289 9.23246855 110.88790816 3.9387207 110.87158203 C1.71011083 110.87060979 -0.51505125 110.9122416 -2.74316406 110.95654297 C-4.16698504 110.96175076 -5.59081793 110.96443815 -7.01464844 110.96435547 C-8.30363037 110.97144531 -9.5926123 110.97853516 -10.9206543 110.98583984 C-15.23095531 110.21532423 -16.67531072 108.75656095 -19.36230469 105.37060547 C-20.69146598 101.38312158 -20.52644928 97.54716077 -20.53930664 93.38867188 C-20.54587784 92.46967606 -20.55244904 91.55068024 -20.55921936 90.60383606 C-20.57894503 87.55994588 -20.59061207 84.51610498 -20.60058594 81.47216797 C-20.60669923 79.9135158 -20.60669923 79.9135158 -20.61293602 78.3233757 C-20.63379155 72.82577462 -20.6480967 67.32819849 -20.6574707 61.83056641 C-20.66854665 56.14860527 -20.70296187 50.46703451 -20.7426424 44.78521156 C-20.76876413 40.41862247 -20.77715849 36.05212713 -20.78075218 31.68546677 C-20.78562799 29.59067517 -20.79727012 27.49588804 -20.81579018 25.40117264 C-20.84009152 22.47090758 -20.83923322 19.54166272 -20.83227539 16.61132812 C-20.84508545 15.74569748 -20.85789551 14.88006683 -20.87109375 13.98820496 C-20.83579678 9.91205768 -20.69353877 7.88916948 -18.44807434 4.3737793 C-13.02408826 -0.83541864 -7.19994367 -0.0017621 0 0 Z " fill="#1672FF" transform="translate(404.3623046875,144.62939453125)"/>
<path d="M0 0 C2.23666419 0.00315296 4.47199608 -0.02027872 6.70849609 -0.0456543 C8.13687985 -0.04792819 9.56526715 -0.04863037 10.99365234 -0.04760742 C12.28899902 -0.05058838 13.5843457 -0.05356934 14.91894531 -0.05664062 C18.61157144 0.3409907 20.45561961 1.06818527 23.37646484 3.31567383 C25.83992817 7.01086882 25.63518322 8.86673308 25.65112305 13.27807617 C25.65623398 13.98249344 25.66134491 14.68691071 25.66661072 15.41267395 C25.68051578 17.74240608 25.67954907 20.07184262 25.67724609 22.40161133 C25.68113301 24.02202464 25.68546767 25.64243693 25.69023132 27.2628479 C25.69769584 30.66069845 25.69740095 34.05844511 25.69213867 37.45629883 C25.68634883 41.80649791 25.7032619 46.15627056 25.72648335 50.50639915 C25.74123117 53.85389688 25.74209088 57.20129222 25.73897362 60.54881668 C25.73948647 62.15235869 25.74471755 63.75590648 25.75478554 65.35941696 C25.76715096 67.60471852 25.76035797 69.84919365 25.7487793 72.09448242 C25.74940872 73.37116791 25.75003815 74.64785339 25.75068665 75.96322632 C25.25677397 80.38791857 23.70705213 82.94935729 20.63989258 86.09887695 C15.88855289 88.65315125 9.97123808 87.83297652 4.67749023 87.81665039 C2.44888036 87.81567815 0.22371828 87.85730996 -2.00439453 87.90161133 C-3.42821551 87.90681912 -4.8520484 87.90950651 -6.27587891 87.90942383 C-7.56486084 87.91651367 -8.85384277 87.92360352 -10.18188477 87.9309082 C-14.49218578 87.16039259 -15.93654119 85.70162931 -18.62353516 82.31567383 C-19.78146556 78.84188262 -19.76476007 76.11097066 -19.78466797 72.44506836 C-19.78963287 71.75040466 -19.79459778 71.05574097 -19.79971313 70.34002686 C-19.81431345 68.04283659 -19.821133 65.74571536 -19.82666016 63.44848633 C-19.83241315 61.85049437 -19.83817086 60.25250242 -19.84393311 58.6545105 C-19.85443688 55.3037687 -19.86028369 51.95305086 -19.86376953 48.60229492 C-19.86925448 44.31265667 -19.89328495 40.02333579 -19.92174149 35.73379707 C-19.9403816 32.43263834 -19.94557418 29.13155588 -19.94710541 25.83034897 C-19.95012912 24.24912658 -19.9581482 22.66790544 -19.97129059 21.08673477 C-19.98838112 18.87260145 -19.986464 16.65924122 -19.97998047 14.44506836 C-19.9836261 13.18614777 -19.98727173 11.92722717 -19.99102783 10.63015747 C-19.59094538 7.02174066 -18.81317007 5.18142865 -16.62353516 2.31567383 C-11.68402772 -0.97733113 -5.78461093 -0.01710674 0 0 Z " fill="#1773FF" transform="translate(353.62353515625,167.684326171875)"/>
<path d="M0 0 C2.17300022 -0.00968252 4.34504502 -0.04069388 6.51782227 -0.07226562 C7.90518645 -0.07879831 9.29255739 -0.08404774 10.67993164 -0.08789062 C11.93974854 -0.09723633 13.19956543 -0.10658203 14.49755859 -0.11621094 C18.15365294 0.26916902 19.98242126 1.02013487 22.87915039 3.24023438 C25.25062229 6.79744222 25.13690927 8.33929208 25.15380859 12.56005859 C25.16810661 14.51756546 25.16810661 14.51756546 25.18269348 16.51461792 C25.18243203 17.94138618 25.18149484 19.36815445 25.17993164 20.79492188 C25.18381908 22.25839357 25.18815385 23.72186414 25.19291687 25.18533325 C25.20037972 28.25363826 25.20008778 31.32182821 25.19482422 34.39013672 C25.18903535 38.31661461 25.20594569 42.24261991 25.22916889 46.1690197 C25.24392381 49.19225811 25.24477546 52.21538324 25.24165916 55.23865128 C25.24217169 56.68589335 25.2473966 58.13314187 25.25747108 59.58034897 C25.2698481 61.60740288 25.26109353 63.63455226 25.25146484 65.66162109 C25.25209427 66.81395233 25.25272369 67.96628357 25.25337219 69.15353394 C24.83662169 72.59102464 23.9089954 74.46415182 21.87915039 77.24023438 C17.11646119 80.7442413 10.33105919 79.6508879 4.66235352 79.66577148 C2.51730868 79.67766144 0.37515049 79.72686032 -1.76928711 79.77734375 C-3.14427317 79.78681032 -4.51927678 79.79404424 -5.89428711 79.79882812 C-7.1361377 79.81228271 -8.37798828 79.8257373 -9.6574707 79.83959961 C-14.26787245 79.04173296 -15.86035033 77.55286994 -19.12084961 74.24023438 C-20.2061594 70.984305 -20.27409034 68.54718546 -20.3137207 65.11987305 C-20.33781509 63.22726997 -20.33781509 63.22726997 -20.36239624 61.2964325 C-20.37388357 59.91702958 -20.38449213 58.5376191 -20.39428711 57.15820312 C-20.39961079 56.46235926 -20.40493446 55.76651539 -20.41041946 55.04958534 C-20.437121 51.36632007 -20.45650528 47.68308833 -20.47094727 43.99975586 C-20.48428462 40.9568067 -20.51213578 37.91452846 -20.55297852 34.87182617 C-20.60236907 31.19189736 -20.62707558 27.51257679 -20.63417435 23.8323307 C-20.6408744 22.43330555 -20.65606433 21.03429331 -20.68006516 19.63545799 C-20.87922187 7.32569685 -20.87922187 7.32569685 -17.71313477 3.39770508 C-12.42471798 -1.00366421 -6.57191338 0.01774794 0 0 Z " fill="#1470FF" transform="translate(254.120849609375,175.759765625)"/>
<path d="M0 0 C7.59 0 15.18 0 23 0 C23 32.34 23 64.68 23 98 C15.41 98 7.82 98 0 98 C0 65.66 0 33.32 0 0 Z " fill="#94C1FF" transform="translate(295,146)"/>
<path d="M0 0 C7.59 0 15.18 0 23 0 C23 29.04 23 58.08 23 88 C15.41 88 7.82 88 0 88 C0 58.96 0 29.92 0 0 Z " fill="#94C1FF" transform="translate(395,156)"/>
<path d="M0 0 C7.59 0 15.18 0 23 0 C23 21.78 23 43.56 23 66 C15.41 66 7.82 66 0 66 C0 44.22 0 22.44 0 0 Z " fill="#D6E8FF" transform="translate(345,178)"/>
<path d="M0 0 C7.92 0 15.84 0 24 0 C24 19.47 24 38.94 24 59 C16.08 59 8.16 59 0 59 C0 39.53 0 20.06 0 0 Z " fill="#D1E5FF" transform="translate(245,186)"/>
<path d="M0 0 C3.3007924 1.10026413 3.92480282 1.82709337 6.0625 4.4375 C11.44988665 10.78773873 17.18580164 17.15956944 24 22 C22.52278578 25.45201639 20.56205999 27.64961936 17.875 30.25 C17.15054688 30.95640625 16.42609375 31.6628125 15.6796875 32.390625 C15.12539062 32.92171875 14.57109375 33.4528125 14 34 C13.56945312 33.42378906 13.13890625 32.84757812 12.6953125 32.25390625 C11.61516918 30.81786317 10.5274005 29.38750164 9.4296875 27.96484375 C8.66011719 26.96130859 8.66011719 26.96130859 7.875 25.9375 C7.35679687 25.26589844 6.83859375 24.59429687 6.3046875 23.90234375 C5 22 5 22 4 19 C2.21117359 17.93794511 2.21117359 17.93794511 0 17 C-1.75797562 15.97185062 -3.50772427 14.92953531 -5.25 13.875 C-6.14203125 13.33617187 -7.0340625 12.79734375 -7.953125 12.2421875 C-8.62859375 11.83226562 -9.3040625 11.42234375 -10 11 C-6.79239749 7.19364503 -3.59253891 3.45436433 0 0 Z " fill="#F9FBFF" transform="translate(193,295)"/>
<path d="M0 0 C4.21809905 0.2723607 7.23384463 0.54297026 10.171875 3.77734375 C12.32051921 7.45083223 12.97427169 8.93833964 12.109375 13.08984375 C10.04545242 16.61848558 8.82878027 18.50219891 4.94921875 19.828125 C0.83373231 20.50831391 -1.22312257 20.47922017 -4.890625 18.33984375 C-7.45191567 15.45839174 -7.84185779 13.52874863 -8.265625 9.71484375 C-7.79545907 5.1699064 -6.33499928 3.94615413 -2.890625 1.08984375 C-1.890625 0.08984375 -1.890625 0.08984375 0 0 Z " fill="#D0E5FF" transform="translate(254.890625,139.91015625)"/>
<path d="M0 0 C2.16015625 0.47265625 2.16015625 0.47265625 5.22265625 2.41015625 C7.47006996 5.96251985 7.95935523 8.16434027 7.703125 12.3125 C6.96965932 15.23053255 5.49204845 16.97269486 3.0078125 18.65234375 C-0.63840007 20.27116963 -2.85763038 20.16796335 -6.83984375 19.47265625 C-9.93443611 16.89382928 -11.39407609 15.34707274 -12.31640625 11.46875 C-12.58587414 7.73165588 -11.91946977 5.59594815 -9.90234375 2.47265625 C-6.33177529 0.14085644 -4.19482315 -0.2731187 0 0 Z " fill="#D3E6FF" transform="translate(358.83984375,130.52734375)"/>
<path d="M0 0 C3.9295493 0.92685276 5.41241975 2.29808529 8.00390625 5.47265625 C8.80273521 8.65073116 8.75254633 11.28805653 8.00390625 14.47265625 C6.06640625 17.53515625 6.06640625 17.53515625 3.00390625 19.47265625 C-1.74667698 20.51211479 -4.93750882 20.14237325 -9.05859375 17.53515625 C-11.66285898 13.41873702 -12.04313378 10.21866555 -10.99609375 5.47265625 C-8.10250338 1.041846 -5.38309693 -0.3983696 0 0 Z " fill="#91BFFF" transform="translate(409.99609375,103.52734375)"/>
<path d="M0 0 C2.16015625 0.47265625 2.16015625 0.47265625 5.22265625 2.41015625 C7.82987325 6.53124118 8.19961479 9.72207302 7.16015625 14.47265625 C5.13010387 17.68144872 3.73716178 19.10193162 0 19.98046875 C-4.5043027 20.32637513 -6.32530335 19.89268923 -9.90234375 16.97265625 C-12.55549898 13.06225674 -12.57286273 10.0906758 -11.83984375 5.47265625 C-8.69040553 0.59610675 -5.54616529 -0.36110258 0 0 Z " fill="#91BFFF" transform="translate(308.83984375,91.52734375)"/>
<path d="M0 0 C0 7.92 0 15.84 0 24 C-5.445 25.485 -5.445 25.485 -11 27 C-11 19.08 -11 11.16 -11 3 C-3 0 -3 0 0 0 Z " fill="#8DBCFF" transform="translate(394,313)"/>
</svg>
