<?xml version="1.0" encoding="UTF-8"?>
<svg version="1.1" xmlns="http://www.w3.org/2000/svg" width="512" height="512">
<path d="M0 0 C6.52640262 2.2676868 10.69251599 2.52085695 17.22070312 0.3125 C18.67103048 -0.11784011 20.12155073 -0.54753066 21.57226562 -0.9765625 C23.71926717 -1.64260313 25.8624938 -2.31791438 28.00195312 -3.0078125 C34.05963553 -4.87171478 39.63820613 -5.54833233 45.78320312 -3.5 C46.48574219 -3.27957031 47.18828125 -3.05914063 47.91210938 -2.83203125 C55.46552332 0.91272389 59.31331293 7.43513125 63.80859375 14.25 C69.55516555 22.72489243 76.38679979 24.54570265 85.828125 27.61914062 C93.05469301 30.04964927 98.9404878 32.67078656 103.22070312 39.3125 C105.96538974 45.29545284 106.38552783 50.51447954 106.17919922 57.02954102 C105.82730295 70.33883423 108.7804304 78.00947334 117.11914062 88.25390625 C121.37455726 93.49288913 123.93244918 99.28889797 123.54492188 106.2109375 C122.61174138 112.25974598 120.46614491 117.07126681 116.31835938 121.59375 C106.89868352 132.09360539 105.96070132 140.36550445 106.31054688 154.30859375 C106.42776093 161.55528107 104.94218799 168.5351009 99.82226562 173.984375 C95.14622983 177.86206322 89.63114706 179.94635425 83.84960938 181.60546875 C73.76293923 184.5285958 67.8054955 186.88902899 62.22070312 196.3125 C57.10727133 204.45567007 52.3515767 210.10646052 42.88476562 213.03515625 C35.09036166 214.36875028 27.59828997 211.60447031 20.22070312 209.3125 C20.65769531 210.16908203 20.65769531 210.16908203 21.10351562 211.04296875 C35.5040316 239.52700821 45.43370646 269.74677849 45.34570312 302 C45.34828125 302.97324219 45.35085938 303.94648438 45.35351562 304.94921875 C45.22070312 307.3125 45.22070312 307.3125 44.22070312 309.3125 C45.16945313 308.9825 46.11820312 308.6525 47.09570312 308.3125 C56.94279492 305.58378782 65.67036443 307.69227827 74.48242188 312.5625 C80.81606687 316.80905817 85.38196727 323.10393193 86.88085938 330.625 C86.99300781 331.511875 87.10515625 332.39875 87.22070312 333.3125 C88.043125 333.26609375 88.86554688 333.2196875 89.71289062 333.171875 C99.59525221 332.85235292 106.77771815 334.23946468 114.53320312 340.5625 C120.75961028 346.43670635 125.0724984 353.60991329 125.55664062 362.30078125 C125.72535952 370.37796644 125.77645236 377.33650899 121.22070312 384.3125 C120.80820312 385.00601562 120.39570313 385.69953125 119.97070312 386.4140625 C113.1498775 396.761565 101.09432053 400.09419428 89.90820312 403.875 C88.32532507 404.41969493 86.74281966 404.96547368 85.16064453 405.51220703 C81.57300023 406.74951363 77.9829182 407.97941455 74.39111328 409.20458984 C67.50010611 411.55612798 60.61618767 413.92814738 53.73242188 416.30078125 C51.15595431 417.18864454 48.57945137 418.07640511 46.00292969 418.96411133 C45.35497751 419.18736556 44.70702534 419.41061979 44.03943825 419.64063931 C39.39320883 421.24124203 34.74610858 422.83929947 30.09863281 424.4362793 C14.93770911 429.64661592 -0.21103872 434.89009683 -15.34179688 440.1875 C-30.11129523 445.3572393 -44.90446811 450.45425468 -59.71679688 455.5 C-60.64726837 455.81700867 -61.57773987 456.13401733 -62.53640747 456.46063232 C-66.82192343 457.91997695 -71.10851913 459.37593925 -75.39770508 460.82446289 C-78.04668651 461.71993676 -80.68617696 462.63282892 -83.32299805 463.56420898 C-89.60159582 465.75833453 -95.6176666 467.18818246 -102.21679688 468 C-103.03599609 468.11666016 -103.85519531 468.23332031 -104.69921875 468.35351562 C-124.9905332 471.01196319 -145.63975328 470.47977575 -166.06173706 470.44167709 C-168.36472535 470.43745799 -170.66771263 470.43452168 -172.97070312 470.43179321 C-208.05602349 470.38466695 -208.05602349 470.38466695 -223.11056519 470.04803467 C-224.52545647 470.01669661 -225.94044392 469.98936847 -227.35549927 469.96661377 C-239.95345145 469.74770762 -251.12673071 467.48257465 -262.59179688 462.25 C-270.44316341 458.71656089 -277.58911649 456.2800123 -286.27929688 455.6875 C-287.32085937 455.61273438 -288.36242187 455.53796875 -289.43554688 455.4609375 C-290.20898438 455.41195313 -290.98242188 455.36296875 -291.77929688 455.3125 C-291.73289062 455.97636719 -291.68648438 456.64023437 -291.63867188 457.32421875 C-291.34138063 464.59723679 -291.34138063 464.59723679 -293.65429688 468.375 C-297.1820275 471.59146028 -299.37144942 471.44618642 -304.07739258 471.47363281 C-304.7231424 471.47859772 -305.36889221 471.48356262 -306.03421021 471.48867798 C-308.1745103 471.50330464 -310.31473622 471.51010303 -312.45507812 471.515625 C-313.94239809 471.52137685 -315.42971804 471.52713458 -316.91703796 471.53289795 C-320.03836411 471.54340992 -323.15966449 471.54925103 -326.28100586 471.55273438 C-330.2758597 471.55821401 -334.27037181 471.5822295 -338.2651186 471.61070633 C-341.3389535 471.62935525 -344.41270655 471.63453954 -347.48659325 471.63607025 C-348.95896456 471.63909316 -350.43133455 471.64710954 -351.90365028 471.66025543 C-353.96703471 471.67736085 -356.0295905 471.67542514 -358.09301758 471.66894531 C-359.26612991 471.67259094 -360.43924225 471.67623657 -361.64790344 471.67999268 C-365.11836542 471.27270774 -366.99748099 470.39142488 -369.77929688 468.3125 C-371.26338073 465.34433228 -370.92369975 462.3234363 -370.91973877 459.06886292 C-370.92270989 458.31381358 -370.92568101 457.55876424 -370.92874217 456.78083462 C-370.93745043 454.2374236 -370.9389392 451.69405953 -370.94042969 449.15063477 C-370.94505629 447.33256936 -370.95008074 445.51450494 -370.95547485 443.69644165 C-370.9686145 438.74816973 -370.97504665 433.79991138 -370.97948551 428.85162473 C-370.98241321 425.76304455 -370.9865174 422.67446812 -370.99098969 419.58588982 C-371.00466762 409.9307264 -371.0143333 400.27557149 -371.01819158 390.62039906 C-371.02267572 379.4591457 -371.04023893 368.29801461 -371.06919217 357.13679844 C-371.09077404 348.51937022 -371.10089395 339.90197649 -371.10223269 331.28452152 C-371.10328307 326.13290173 -371.1092403 320.98139682 -371.12705231 315.82980537 C-371.14347308 310.98630998 -371.14571783 306.14301656 -371.1369133 301.29950333 C-371.13613974 299.51888045 -371.14052729 297.73824697 -371.15037155 295.95765114 C-371.1629959 293.53256372 -371.15726683 291.10820205 -371.14678955 288.68312073 C-371.15484596 287.97339806 -371.16290236 287.26367539 -371.1712029 286.53244597 C-371.14237245 283.69234789 -371.10569003 281.77641792 -369.44382858 279.4143362 C-365.86112266 277.04276522 -362.53541507 277.17060966 -358.36767578 277.13549805 C-357.72177994 277.12892685 -357.07588409 277.12235565 -356.41041565 277.11558533 C-354.27556232 277.09589423 -352.14077913 277.0842002 -350.00585938 277.07421875 C-349.27566967 277.07014322 -348.54547997 277.0660677 -347.7931633 277.06186867 C-343.92949457 277.04102743 -340.06586118 277.02671641 -336.20214844 277.01733398 C-332.21506853 277.00626356 -328.22854581 276.97185156 -324.24166298 276.93216228 C-321.17211885 276.90600269 -318.10270778 276.89764287 -315.03306198 276.89405251 C-313.56346237 276.88918608 -312.09386872 276.87757033 -310.6243782 276.85901451 C-308.56570604 276.83463122 -306.50847978 276.83558515 -304.44970703 276.8425293 C-303.2796109 276.83666306 -302.10951477 276.83079681 -300.90396118 276.82475281 C-297.12995239 277.41385999 -295.48466233 278.67014443 -292.77929688 281.3125 C-291.51691957 283.83725462 -291.68073283 285.62450466 -291.71679688 288.4375 C-291.72582031 289.34757812 -291.73484375 290.25765625 -291.74414062 291.1953125 C-291.75574219 291.89398438 -291.76734375 292.59265625 -291.77929688 293.3125 C-278.23379827 293.16394518 -267.90134348 291.7729125 -255.59179688 285.75390625 C-247.65864468 281.93035573 -240.46242725 279.79657326 -231.77929688 278.3125 C-231.73683838 277.63880371 -231.69437988 276.96510742 -231.65063477 276.27099609 C-231.14796613 269.5823071 -230.03694563 263.38633214 -228.21679688 256.9375 C-227.95286133 255.99342285 -227.68892578 255.0493457 -227.41699219 254.07666016 C-220.74111838 230.87317505 -210.94155451 208.91441604 -196.77929688 189.3125 C-196.39338379 188.76577637 -196.0074707 188.21905273 -195.60986328 187.65576172 C-190.65694931 180.67142003 -185.18204573 174.44832871 -179.15429688 168.375 C-178.24031128 167.45267578 -178.24031128 167.45267578 -177.30786133 166.51171875 C-165.92983409 155.3125 -165.92983409 155.3125 -161.77929688 155.3125 C-162.17761719 154.81621094 -162.5759375 154.31992188 -162.98632812 153.80859375 C-169.40003646 145.58469036 -171.97334846 138.82564387 -170.77929688 128.3125 C-169.38483567 122.71711477 -166.72977581 119.03674579 -162.62304688 115.046875 C-161.90310547 114.34272461 -161.18316406 113.63857422 -160.44140625 112.91308594 C-159.89291016 112.38489258 -159.34441406 111.85669922 -158.77929688 111.3125 C-160.32584359 107.96941904 -161.87430362 104.62722944 -163.42355347 101.28540039 C-164.28401404 99.42731372 -165.14219908 97.56818755 -166.00024414 95.70898438 C-168.99282162 89.23713931 -172.02000153 82.78542055 -175.13522339 76.37155151 C-176.63659839 73.27954925 -178.12690642 70.1822612 -179.6171875 67.0848999 C-180.34994451 65.57061947 -181.08839414 64.05908044 -181.83251953 62.550354 C-182.87987638 60.42559029 -183.90750978 58.29228293 -184.93164062 56.15625 C-185.25071884 55.5219809 -185.56979706 54.88771179 -185.89854431 54.23422241 C-187.9544635 49.87879541 -187.9544635 49.87879541 -187.07275391 47.02832031 C-178.88675309 36.16927657 -167.83081185 23.84227364 -153.77929688 21.3125 C-141.78415092 20.38776408 -131.96651582 22.042327 -120.77929688 26.3125 C-120.15410156 26.54727051 -119.52890625 26.78204102 -118.88476562 27.02392578 C-116.06175535 28.08701202 -113.25100751 29.17409827 -110.45117188 30.296875 C-96.59855775 35.56248856 -82.25645175 32.25309253 -68.984375 27.13818359 C-65.31468436 25.7640811 -61.58253149 24.60095178 -57.84179688 23.4375 C-57.17317627 23.22262939 -56.50455566 23.00775879 -55.81567383 22.78637695 C-53.00942406 21.90232612 -50.74285313 21.3125 -47.77929688 21.3125 C-47.54726563 20.79558594 -47.31523437 20.27867188 -47.07617188 19.74609375 C-45.31524032 16.44169508 -43.18917866 13.42519019 -41.02929688 10.375 C-40.4028125 9.46331055 -40.4028125 9.46331055 -39.76367188 8.53320312 C-36.12633766 3.39325066 -31.98208068 -1.26974028 -25.90429688 -3.5 C-25.30875 -3.73332031 -24.71320313 -3.96664063 -24.09960938 -4.20703125 C-15.25361934 -6.03877666 -8.19897801 -3.06545982 0 0 Z " fill="#010101" transform="translate(378.779296875,22.6875)"/>
<path d="M0 0 C6.24068167 4.7791507 12.2571488 9.84192237 18.29003906 14.87841797 C48.70670578 40.25376475 75.91657645 47.94808837 115.02441406 48.02148438 C118.05704796 48.03102396 121.08868499 48.06476203 124.12109375 48.1015625 C125.03580444 48.09651703 125.95051514 48.09147156 126.89294434 48.08627319 C133.45586393 48.1864745 139.04000207 49.45159228 143.92810059 54.08773804 C148.51071546 59.36201556 149.81353829 63.25860723 149.65234375 70.109375 C149.02337126 76.4777215 146.15667423 80.56548459 141.40234375 84.640625 C136.6507752 87.88559864 132.93903951 88.76401515 127.24072266 88.77192688 C126.19764954 88.77593506 125.15457642 88.77994324 124.07989502 88.78407288 C122.94106873 88.78354416 121.80224243 88.78301544 120.62890625 88.7824707 C119.42530457 88.78594513 118.22170288 88.78941956 116.98162842 88.79299927 C114.36686641 88.80035345 111.75215514 88.80602787 109.13739014 88.80928993 C105.00252117 88.81520894 100.86773785 88.83175652 96.73291016 88.85063171 C95.31649785 88.85696858 93.9000855 88.86329421 92.4836731 88.86960888 C91.77447849 88.87277469 91.06528389 88.8759405 90.33459854 88.87920225 C80.71071086 88.9212651 71.08686418 88.95426962 61.46289062 88.96655273 C54.96718805 88.9749283 48.47169872 88.99739641 41.97610283 89.0359084 C38.53974824 89.05567965 35.10371248 89.0680701 31.66729736 89.06307411 C27.83658207 89.05757219 24.00640709 89.08280689 20.17578125 89.1105957 C18.46754181 89.10069359 18.46754181 89.10069359 16.72479248 89.09059143 C15.1601828 89.10929291 15.1601828 89.10929291 13.56396484 89.12837219 C12.65842865 89.13076055 11.75289246 89.1331489 10.81991577 89.13560963 C7.59772381 89.80870497 6.37501107 91.04770071 4.40234375 93.640625 C4.54515883 98.69755399 4.54515883 98.69755399 7.40234375 102.640625 C9.74718106 102.95074433 9.74718106 102.95074433 12.51086426 102.90805054 C13.59300201 102.91658051 14.67513977 102.92511047 15.79006958 102.93389893 C16.98276459 102.93299255 18.17545959 102.93208618 19.40429688 102.93115234 C20.65649017 102.93786957 21.90868347 102.94458679 23.19882202 102.95150757 C26.64148787 102.96728984 30.08391247 102.97386522 33.52659798 102.97513914 C35.67986714 102.97656004 37.83311101 102.98082873 39.9863739 102.98613358 C47.50623172 103.00465772 55.02601856 103.01280227 62.54589844 103.01123047 C69.54068119 103.01003228 76.53515375 103.0310647 83.52985811 103.0627178 C89.54275851 103.08895181 95.55555817 103.09959461 101.5685153 103.09831965 C105.15602215 103.09781158 108.74325418 103.10340646 112.33070374 103.12467575 C116.34242541 103.14780772 120.35346393 103.138494 124.36523438 103.12646484 C125.54173553 103.13770386 126.71823669 103.14894287 127.9303894 103.16052246 C138.55068756 103.07987275 147.6546866 100.13835773 155.40234375 92.640625 C160.88586598 86.05045089 163.91008961 78.96090653 164.9362793 70.48852539 C165.09008057 69.21871826 165.24388184 67.94891113 165.40234375 66.640625 C180.36600716 61.02591274 195.42882353 55.69712535 210.52840042 50.46105385 C214.16293676 49.20061345 217.79532607 47.934625 221.42333984 46.65551758 C224.99421615 45.39666386 228.56962865 44.15161009 232.14863205 42.91605949 C233.49375937 42.4491781 234.83726688 41.97759924 236.17897415 41.50097847 C244.21371692 38.65132234 251.32064655 36.16862186 259.85546875 38.234375 C265.0846687 40.87171063 268.34538693 44.07922321 270.40234375 49.640625 C271.35209941 55.55833332 270.9172713 60.65169558 267.40234375 65.640625 C262.41362864 70.93342533 257.12971404 73.24116233 250.29296875 75.41796875 C248.82043137 75.90937347 248.82043137 75.90937347 247.31814575 76.41070557 C245.20526936 77.11373601 243.08990405 77.80932218 240.97235107 78.49813843 C237.58547888 79.5998759 234.20545343 80.7206694 230.82666016 81.84692383 C227.35178965 83.00507603 223.87661868 84.16218048 220.39944458 85.31340027 C210.99187816 88.42900445 201.62821694 91.65814518 192.28024292 94.94760132 C178.81339195 99.68525969 165.32672907 104.36540821 151.828125 109.01171875 C151.14771149 109.24594669 150.46729797 109.48017464 149.76626587 109.7215004 C142.09062649 112.36324116 134.41282737 114.99857537 126.73193359 117.625 C124.01129604 118.55570575 121.29077036 119.48673787 118.5703125 120.41796875 C117.90734161 120.64483242 117.24437073 120.87169609 116.56130981 121.10543442 C108.25186377 123.95071609 99.96552607 126.85277104 91.703125 129.83203125 C89.19526324 130.72639079 86.68673784 131.61885637 84.17788696 132.51043701 C82.03443065 133.28066122 79.90170002 134.07596486 77.76831055 134.87353516 C57.34275375 142.25788338 35.33838621 142.10001953 13.88671875 142.0390625 C11.32659828 142.04109054 8.76647838 142.04400799 6.20635986 142.04776001 C0.89190527 142.05213948 -4.42239132 142.04618687 -9.73681641 142.03173828 C-15.84471676 142.0153223 -21.95231791 142.02079032 -28.06021142 142.0372175 C-34.00295222 142.05254718 -39.94560138 142.05083316 -45.88835907 142.0420723 C-48.39041944 142.04008395 -50.89248759 142.04248103 -53.39453888 142.04951096 C-56.8885543 142.0571864 -60.38200305 142.04544042 -63.87597656 142.02880859 C-64.88916458 142.03488129 -65.9023526 142.04095398 -66.94624329 142.04721069 C-77.71004783 141.95297587 -87.15195967 139.1331116 -96.84765625 134.640625 C-108.32247778 129.56818785 -119.11076907 128.02805691 -131.59765625 126.640625 C-131.59765625 84.400625 -131.59765625 42.160625 -131.59765625 -1.359375 C-125.32765625 -1.689375 -119.05765625 -2.019375 -112.59765625 -2.359375 C-102.49827896 -4.3962242 -93.90024104 -7.76077073 -84.64868164 -12.18554688 C-57.77357699 -24.94993485 -23.30561852 -16.93906513 0 0 Z " fill="#FDD685" transform="translate(217.59765625,334.359375)"/>
<path d="M0 0 C1.51030289 0.00636726 1.51030289 0.00636726 3.05111694 0.01286316 C6.22967629 0.02949715 9.40757364 0.06712 12.5859375 0.10546875 C14.75650118 0.12053536 16.92707492 0.13422028 19.09765625 0.14648438 C24.38563802 0.17935028 29.67324044 0.22939414 34.9609375 0.29296875 C35.20309998 0.96422287 35.44526245 1.63547699 35.69476318 2.32707214 C38.81067767 10.59320005 42.52232726 15.78874456 50.76367188 19.58349609 C53.72317019 20.65855703 56.68886501 21.59724369 59.7109375 22.48046875 C71.00567818 25.86027997 75.70720369 30.5433757 82.12304688 40.12109375 C85.97030023 45.69506711 90.2265716 50.34891735 96.9609375 52.29296875 C103.65288827 53.08448981 109.54518409 52.16602514 115.8671875 49.94921875 C117.9609375 49.29296875 117.9609375 49.29296875 120.9609375 49.29296875 C135.58704598 74.23363446 148.0770909 102.94189618 148.9609375 132.29296875 C148.99960937 133.40212646 148.99960937 133.40212646 149.0390625 134.53369141 C149.6879465 155.53725539 147.5808183 176.13286627 132.9765625 192.51953125 C124.56909311 201.21146389 124.56909311 201.21146389 119.9609375 201.35546875 C117.47833691 200.03658719 116.27543022 198.17014206 114.57421875 195.984375 C108.71008927 189.83626831 100.21897661 186.26600485 91.83618164 186.02172852 C89.80622559 186.00045861 87.77615691 185.98856224 85.74609375 185.984375 C83.50976328 185.95919187 81.27343521 185.93379422 79.03710938 185.90820312 C75.54224409 185.87963474 72.04742109 185.85559865 68.55249023 185.83666992 C50.43825398 185.71958806 34.73867206 184.78572794 17.9609375 177.29296875 C17.07277344 176.89722656 16.18460937 176.50148438 15.26953125 176.09375 C6.96438509 171.97212009 0.12125926 165.97428981 -6.93652344 160.05273438 C-34.09986972 137.31778314 -58.11869409 122.48672536 -94.0390625 119.29296875 C-93.6335583 111.11917714 -92.05673205 103.7728092 -89.6015625 95.98046875 C-89.24956787 94.85471436 -88.89757324 93.72895996 -88.53491211 92.5690918 C-77.28380615 57.72276732 -56.99731273 23.68858065 -24.69140625 5.01953125 C-16.66914745 0.96865719 -8.8988517 -0.14434452 0 0 Z " fill="#F5CF18" transform="translate(258.0390625,181.70703125)"/>
<path d="M0 0 C3.72160277 0.52647064 7.09918437 1.5949918 10.63085938 2.86791992 C23.24671455 7.40433397 32.0991994 6.53458382 44.57714844 2.13549805 C52.93202801 -0.78732253 52.93202801 -0.78732253 57.25 0 C61.19538617 3.12162422 63.89956274 7.16756795 66.80151367 11.23120117 C72.11682716 18.60252012 76.30415764 24.26654817 85.25 27 C87.57413853 27.76496691 89.89506551 28.53928357 92.21606445 29.3137207 C93.83685417 29.84576498 95.46299226 30.36184016 97.09448242 30.86010742 C98.22140503 31.21165894 98.22140503 31.21165894 99.37109375 31.5703125 C100.0458374 31.77414551 100.72058105 31.97797852 101.41577148 32.18798828 C103.67344262 33.18745776 104.79915958 33.98552772 106.25 36 C106.61889648 38.67626953 106.61889648 38.67626953 106.62109375 41.8828125 C106.63849609 43.05070312 106.65589844 44.21859375 106.67382812 45.421875 C106.68285614 47.86717638 106.68813844 50.31249481 106.68945312 52.7578125 C106.89494522 65.68255667 111.48349397 72.8730381 119.1796875 82.86914062 C121.41929854 85.89482204 123.07022696 88.2930169 124.00390625 91.96484375 C122.82088362 96.72758254 119.9347945 100.05910328 116.9375 103.875 C107.77924334 115.64281408 106.83208817 123.65437175 106.72265625 138.52929688 C106.68978516 140.28790039 106.68978516 140.28790039 106.65625 142.08203125 C106.64916016 143.14655518 106.64207031 144.2110791 106.63476562 145.30786133 C106.25 148 106.25 148 105.04418945 149.75097656 C102.81865121 151.30028308 100.71843223 152.06799139 98.13671875 152.90234375 C97.13576172 153.23556641 96.13480469 153.56878906 95.10351562 153.91210938 C93.00458978 154.5918972 90.90563181 155.27158583 88.80664062 155.95117188 C79.25753729 159.13012289 73.96720447 162.75642155 68.1875 170.9375 C60.60098433 181.5353087 60.60098433 181.5353087 57.25 184 C52.30240354 183.96469605 48.15005163 182.77566437 43.52001953 181.13208008 C30.85539516 176.63833397 21.04801237 177.14672025 8.51611328 181.86450195 C4.31797257 183.43519367 0.80425844 184.6715038 -3.75 184 C-5.5859375 182.63671875 -5.5859375 182.63671875 -7.125 180.6875 C-8.00285156 179.59888672 -8.00285156 179.59888672 -8.8984375 178.48828125 C-11.53134396 174.94996603 -14.08160622 171.35742361 -16.5625 167.7109375 C-22.49468759 160.35926217 -28.54720935 157.58842817 -37.5 154.8125 C-39.55984182 154.16034438 -41.61727191 153.50050819 -43.671875 152.83203125 C-45.02684082 152.41014526 -45.02684082 152.41014526 -46.40917969 151.97973633 C-49.61638662 150.63737907 -51.20602604 149.08794791 -52.75 146 C-52.83296279 144.01183628 -52.85824059 142.02114199 -52.85546875 140.03125 C-52.87029297 138.81953125 -52.88511719 137.6078125 -52.90039062 136.359375 C-52.92482865 133.81782048 -52.93051663 131.27600564 -52.91601562 128.734375 C-53.0651753 120.1644737 -54.56540259 114.82179834 -59.75 108 C-60.22703369 107.34515625 -60.70406738 106.6903125 -61.19555664 106.015625 C-62.94639684 103.64730238 -64.73534482 101.31471702 -66.57617188 99.015625 C-68.5736167 96.36441618 -69.71795461 94.48802456 -69.9375 91.14453125 C-68.17862114 86.48697375 -65.32664301 82.8671688 -62.3125 78.9375 C-61.12144714 77.36695129 -59.93508353 75.79283311 -58.75390625 74.21484375 C-58.22611572 73.52511475 -57.6983252 72.83538574 -57.15454102 72.12475586 C-54.16846455 67.60749122 -53.50516878 63.90803095 -53.4765625 58.52734375 C-53.4559375 57.29822266 -53.4353125 56.06910156 -53.4140625 54.80273438 C-53.38798204 52.22207261 -53.3697761 49.64131946 -53.359375 47.06054688 C-53.33617187 45.83271484 -53.31296875 44.60488281 -53.2890625 43.33984375 C-53.27673584 41.65942993 -53.27673584 41.65942993 -53.26416016 39.94506836 C-52.62809145 36.30171754 -51.67948783 35.20540098 -48.75 33 C-46.31152344 31.92260742 -46.31152344 31.92260742 -43.609375 31.10546875 C-42.62066406 30.78900391 -41.63195312 30.47253906 -40.61328125 30.14648438 C-38.5553186 29.51256991 -36.49543616 28.88485115 -34.43359375 28.26367188 C-23.96156806 24.88844699 -18.08979715 19.16145509 -11.9375 10.25 C-11.01664127 8.94107424 -10.09353968 7.6337229 -9.16796875 6.328125 C-8.57665161 5.47589355 -8.57665161 5.47589355 -7.97338867 4.60644531 C-4.46534954 0 -4.46534954 0 0 0 Z " fill="#FD94C0" transform="translate(361.75,35)"/>
<path d="M0 0 C15.18 0 30.36 0 46 0 C46 52.8 46 105.6 46 160 C30.82 160 15.64 160 0 160 C0 107.2 0 54.4 0 0 Z " fill="#6193FF" transform="translate(24,317)"/>
<path d="M0 0 C3.49861674 1.25499539 7.016991 2.44804289 10.53955078 3.63378906 C11.69970703 4.03210938 12.85986328 4.43042969 14.05517578 4.84082031 C19.87989477 6.60652619 25.6261621 7.05074954 31.66455078 7.38378906 C32.40060547 7.42697266 33.13666016 7.47015625 33.89501953 7.51464844 C35.69303147 7.61972706 37.49127036 7.72090999 39.28955078 7.82128906 C41.22920451 32.03413581 41.22920451 32.03413581 33.19824219 41.53271484 C31.90698521 42.97276253 30.59850355 44.39730712 29.28955078 45.82128906 C23.95414663 53.38904114 23.28955078 57.18082658 23.28955078 66.82128906 C10.41955078 66.82128906 -2.45044922 66.82128906 -15.71044922 66.82128906 C-21.36720881 55.50776988 -27.00522223 44.196867 -32.48657227 32.79907227 C-33.3549144 30.99992802 -34.22875091 29.2034267 -35.10766602 27.40942383 C-36.3959579 24.77810483 -37.66629624 22.13878541 -38.93310547 19.49707031 C-39.32877213 18.69811844 -39.72443878 17.89916656 -40.13209534 17.07600403 C-42.75154304 11.54526546 -42.75154304 11.54526546 -42.54443359 7.89648438 C-40.24425622 2.17297509 -33.29122401 -2.09434088 -27.80419922 -4.51074219 C-18.19269343 -7.57709944 -9.01630548 -3.24820356 0 0 Z " fill="#F6D018" transform="translate(253.71044921875,65.1787109375)"/>
<path d="M0 0 C2.375 1.4375 2.375 1.4375 4 4 C4.32704565 7.36013035 4.23113416 10.63571389 4 14 C5.2375 14.0928125 5.2375 14.0928125 6.5 14.1875 C15.88295644 16.36568632 21.58625301 23.15468169 26.9375 30.75 C28.59597408 35.82297953 28.79222862 40.72602093 28 46 C25.9375 48.8125 25.9375 48.8125 23 50 C18.77193574 50.07417657 16.79538412 49.71165948 13.625 46.875 C12 44 12 44 11.5625 40.5 C10.85830211 36.11832425 9.35433669 34.79528058 6 32 C1.11955675 28.74637117 -4.294655 29.42455315 -10 30 C-12.74138362 30.99780192 -13.82056504 31.93527215 -16 34 C-16.61875 34.556875 -17.2375 35.11375 -17.875 35.6875 C-19.67599301 39.38954119 -19.64668657 42.97121699 -19 47 C-15.30941061 52.84343319 -7.52694165 53.90072077 -1.22924805 55.37792969 C9.93108887 58.01425014 19.32505965 60.98758948 26 71 C29.47513266 77.82241763 29.28297887 88.16941115 26.9375 95.4375 C22.56902006 104.67543236 15.28022876 109.28227558 6 113 C5.34 113 4.68 113 4 113 C4.08701172 113.88751953 4.08701172 113.88751953 4.17578125 114.79296875 C4.42728017 119.19779273 4.45990867 121.33719045 1.875 125.0625 C-1.51051929 127.34404561 -3.00343438 127.7652998 -7 127 C-9.25 125.625 -9.25 125.625 -11 123 C-11.28625193 121.31826991 -11.53263193 119.62951282 -11.75 117.9375 C-12.11762022 115.28589023 -12.11762022 115.28589023 -13 113 C-16.21814178 111.44750069 -16.21814178 111.44750069 -18.640625 110.8828125 C-24.98425941 108.50920095 -30.52992884 102.59089454 -33.5625 96.625 C-35.54811123 91.61780647 -36.7254274 87.40390849 -36 82 C-34.5 79 -34.5 79 -32 77 C-28.07322932 76.09072728 -25.07904345 76.34689475 -21.625 78.4375 C-20.00211873 80.99665893 -19.60322225 82.514677 -19.0625 85.4375 C-18.21988874 89.97119598 -16.69427659 92.09735411 -13 95 C-8.68798789 97.52497204 -4.88760922 97.52839019 0 97 C5.09915108 95.41173983 8.45149651 93.79118656 11 89 C11.7072634 84.50851283 12.16755904 80.63166375 9.4375 76.81640625 C6.32155772 74.49443003 3.22975998 73.77501506 -0.5 73 C-1.9356939 72.67012094 -3.37058946 72.33674914 -4.8046875 72 C-5.51334961 71.835 -6.22201172 71.67 -6.95214844 71.5 C-17.8535814 68.83832443 -26.30595431 65.26108386 -33 56 C-36.77603818 49.70660303 -36.99690587 43.20903007 -36 36 C-32.83321798 26.31405498 -27.37143896 20.20220399 -18.75 15.0625 C-16 14 -16 14 -12 14 C-12.04640625 13.40832031 -12.0928125 12.81664062 -12.140625 12.20703125 C-12.33369653 7.98014382 -12.4219755 5.6751608 -10.125 2 C-6.53691118 -1.37702477 -4.72517246 -1.22854484 0 0 Z " fill="#030300" transform="translate(288,228)"/>
<path d="M0 0 C3.625 0.5 3.625 0.5 6.625 2.5625 C8.625 5.5 8.625 5.5 8.578125 8.7265625 C7.39721921 13.40178789 5.36606599 16.11563998 2.375 19.8125 C1.27173024 21.22783749 0.17022975 22.64455556 -0.9296875 24.0625 C-1.50041992 24.79210937 -2.07115234 25.52171875 -2.65917969 26.2734375 C-5.44540859 29.88903334 -8.09481208 33.60019532 -10.75 37.3125 C-16.3730777 45.13539922 -22.06778463 52.90291865 -27.796875 60.6484375 C-30.30258793 64.0379484 -32.78919244 67.4406038 -35.265625 70.8515625 C-35.90121338 71.72369385 -36.53680176 72.5958252 -37.19165039 73.49438477 C-38.41354716 75.17168245 -39.63165828 76.85174632 -40.84545898 78.53491211 C-41.39532471 79.28780518 -41.94519043 80.04069824 -42.51171875 80.81640625 C-42.99342529 81.48099854 -43.47513184 82.14559082 -43.97143555 82.83032227 C-46.37227058 85.68635128 -48.12992119 86.46880815 -51.8125 86.9375 C-55.375 86.5 -55.375 86.5 -57.8125 84.375 C-59.71376697 80.87666878 -59.90731882 79.44841702 -59.375 75.5 C-57.79342451 72.54782879 -55.79021686 69.96144206 -53.75 67.3125 C-53.16532959 66.52931396 -52.58065918 65.74612793 -51.97827148 64.93920898 C-50.74189877 63.28407283 -49.49981803 61.63318717 -48.25244141 59.98632812 C-45.85986401 56.81779651 -43.51162353 53.61796112 -41.1640625 50.41601562 C-39.42041097 48.03920557 -37.67017071 45.66738717 -35.91796875 43.296875 C-33.54155141 40.08106584 -31.16919159 36.86233587 -28.80078125 33.640625 C-23.11789946 25.91112729 -17.42329714 18.19034099 -11.6875 10.5 C-11.19427246 9.83524658 -10.70104492 9.17049316 -10.19287109 8.4855957 C-4.32318227 0.64047145 -4.32318227 0.64047145 0 0 Z " fill="#040203" transform="translate(414.375,83.5)"/>
<path d="M0 0 C4.29862514 3.16400949 7.82534914 7.37057139 9.8203125 12.33984375 C10.60647878 18.73887164 10.52444464 24.9170765 7.234375 30.5859375 C4.18013902 34.37420257 0.15209763 37.17395118 -4.1796875 39.33984375 C-12.10995017 40.17183678 -18.90353958 40.358692 -25.3359375 35.234375 C-29.89775095 30.54691838 -32.42619061 25.8784028 -32.6796875 19.27734375 C-32.2375369 12.1366115 -30.65370316 7.3596977 -25.3046875 2.46484375 C-17.65348382 -3.62008091 -8.76496831 -4.98574108 0 0 Z " fill="#040203" transform="translate(377.1796875,85.66015625)"/>
<path d="M0 0 C4.57901461 2.66710872 8.2566273 6.7007546 10.625 11.4375 C10.77477039 13.68405587 10.84650174 15.93613768 10.875 18.1875 C10.90078125 19.39921875 10.9265625 20.6109375 10.953125 21.859375 C10.36636362 28.25786817 7.45620191 32.35781839 2.625 36.4375 C-2.5484492 39.84575945 -7.19003683 41.43429989 -13.375 40.4375 C-19.35369622 38.89568409 -24.3202167 36.58211312 -27.7890625 31.2734375 C-30.89626741 25.66658171 -32.59179455 20.83436275 -31.375 14.4375 C-29.3744652 7.77733447 -24.9640958 3.39692105 -19.375 -0.5625 C-13.28221719 -2.5934276 -5.91248609 -2.67605753 0 0 Z " fill="#040203" transform="translate(421.375,130.5625)"/>
<path d="M0 0 C1.12166565 -0.02897369 2.2433313 -0.05794739 3.39898682 -0.08779907 C7.86072876 -0.17234006 12.32245084 -0.2451276 16.78476334 -0.29209328 C20.17099452 -0.32784547 23.55484749 -0.38111103 26.93994141 -0.47753906 C30.84359753 -0.58839391 34.74623567 -0.6253904 38.65136719 -0.65771484 C39.86093079 -0.70102936 41.07049438 -0.74434387 42.31671143 -0.78897095 C50.38113533 -0.77085589 50.38113533 -0.77085589 53.77233887 2.00567627 C57.7402136 7.32475679 58.25319576 11.77308513 57.63574219 18.25634766 C49.50797479 18.34912282 41.38042947 18.42015009 33.25226307 18.46359634 C29.47779926 18.48445092 25.70369833 18.51272856 21.92944336 18.55810547 C18.28545769 18.60164086 14.64182054 18.62550079 10.99759483 18.63585663 C9.6089193 18.64323435 8.22026234 18.65764166 6.83173561 18.67926788 C4.88353787 18.70839782 2.93498771 18.70998237 0.98657227 18.71044922 C-0.12151291 18.71933167 -1.22959808 18.72821411 -2.3712616 18.73736572 C-6.05801103 18.14485141 -7.70854738 16.82749706 -10.36425781 14.25634766 C-11.79088 11.40310328 -11.67459649 9.42180217 -11.36425781 6.25634766 C-7.96421628 1.15628536 -5.96381106 0.15014172 0 0 Z " fill="#5F91FC" transform="translate(235.3642578125,147.74365234375)"/>
<path d="M0 0 C3.42228921 3.17187781 6.45737885 5.99373662 6.67211914 10.8581543 C5.5625 13.375 5.5625 13.375 2.05249023 15.13598633 C0.49933073 15.68095476 -1.06191302 16.20321854 -2.62890625 16.70703125 C-3.44874496 16.9885051 -4.26858368 17.26997894 -5.11326599 17.5599823 C-7.7359976 18.45543919 -10.36736935 19.3216325 -13 20.1875 C-14.77863878 20.78911506 -16.55664359 21.39260793 -18.33398438 21.99804688 C-22.69476255 23.47892924 -27.06350783 24.93363896 -31.4375 26.375 C-31.7675 25.715 -32.0975 25.055 -32.4375 24.375 C-31.6001774 22.32002165 -30.66587407 20.30419007 -29.6875 18.3125 C-27.74587769 14.3142618 -26.15420873 10.63085833 -25.125 6.3125 C-24.30892699 3.74635136 -23.75947068 2.63313771 -21.64453125 0.9375 C-14.80985757 -2.54636906 -6.98105551 -3.30013533 0 0 Z " fill="#FBD483" transform="translate(443.4375,348.625)"/>
<path d="M0 0 C1.175625 0.0825 2.35125 0.165 3.5625 0.25 C5.5625 3.25 5.5625 3.25 5.3125 5.8125 C4.5625 8.25 4.5625 8.25 2.5625 10.25 C-0.27136167 10.6133156 -1.84272151 10.6068671 -4.3125 9.125 C-5.4375 7.25 -5.4375 7.25 -5.1875 4.125 C-4.19092466 0.30479452 -4.19092466 0.30479452 0 0 Z " fill="#E686AF" transform="translate(411.4375,144.75)"/>
<path d="M0 0 C0.625 3.375 0.625 3.375 1 7 C-1 9 -1 9 -4 9.25 C-7 9 -7 9 -9 7 C-9.3633156 4.16613833 -9.3568671 2.59477849 -7.875 0.125 C-5.07848948 -1.55290631 -3.06309468 -0.74875648 0 0 Z " fill="#F58FBA" transform="translate(370,100)"/>
</svg>
