<?xml version="1.0" encoding="UTF-8"?>
<svg version="1.1" xmlns="http://www.w3.org/2000/svg" width="512" height="512">
<path d="M0 0 C0.73702148 0.35819824 1.47404297 0.71639648 2.23339844 1.08544922 C33.35162599 16.419984 62.70235759 39.55204832 84 67 C85.01789143 68.2776129 86.03614582 69.55493668 87.0546875 70.83203125 C94.88964276 80.75335513 101.76009426 91.00835742 108 102 C108.68425049 103.19786133 108.68425049 103.19786133 109.38232422 104.41992188 C121.36670012 125.64531286 129.75201368 148.21558686 135 172 C135.19819336 172.8854248 135.39638672 173.77084961 135.60058594 174.68310547 C147.64828953 229.95423133 139.65829391 288.33630949 115 339 C114.64180176 339.73702148 114.28360352 340.47404297 113.91455078 341.23339844 C98.56736823 372.37729199 75.43013874 401.64615782 48 423 C46.7212575 424.01941 45.4426186 425.03894997 44.1640625 426.05859375 C34.24339679 433.89131218 23.99002327 440.76101354 13 447 C11.80213867 447.68425049 11.80213867 447.68425049 10.58007812 448.38232422 C-10.65105422 460.36994183 -33.21482673 468.7350638 -57 474 C-57.87479004 474.19819336 -58.74958008 474.39638672 -59.65087891 474.60058594 C-122.6636629 488.53554059 -191.35813559 476.13091599 -246 442 C-255.38075944 435.86603579 -264.41710488 429.20803011 -273 422 C-273.78189697 421.3512793 -273.78189697 421.3512793 -274.57958984 420.68945312 C-286.91186479 410.44125884 -298.12409883 399.68611695 -308 387 C-309.01941 385.7212575 -310.03894997 384.4426186 -311.05859375 383.1640625 C-318.89131218 373.24339679 -325.76101354 362.99002327 -332 352 C-332.68425049 350.80213867 -332.68425049 350.80213867 -333.38232422 349.58007812 C-366.59606453 290.75560281 -372.93698357 220.71986901 -355 156 C-344.96738462 120.56899371 -326.59254364 87.37728755 -302 60 C-301.53464844 59.47970215 -301.06929687 58.9594043 -300.58984375 58.42333984 C-291.65057931 48.45191919 -282.4754331 39.37145644 -272 31 C-271.24332031 30.36449219 -270.48664063 29.72898438 -269.70703125 29.07421875 C-195.12377265 -32.92873117 -86.066548 -41.88905733 0 0 Z " fill="#FF9F0D" transform="translate(368,29)"/>
<path d="M0 0 C3.93712187 1.82075671 6.63336039 4.37649498 9.640625 7.4453125 C10.16767029 7.97518768 10.69471558 8.50506287 11.23773193 9.05099487 C12.91325675 10.73767825 14.58167722 12.43119564 16.25 14.125 C17.38755851 15.27259388 18.52557436 16.41973461 19.6640625 17.56640625 C22.44803465 20.37238137 25.2256576 23.18450464 28 26 C23.64304101 31.21063922 19.0641384 36.07416581 14.25048828 40.86303711 C13.49858719 41.61508423 12.7466861 42.36713135 11.97200012 43.14196777 C9.507136 45.60613996 7.03875789 48.06675951 4.5703125 50.52734375 C2.85231025 52.24347927 1.13452988 53.95983694 -0.58303833 55.67640686 C-5.08856861 60.17813208 -9.59709471 64.67684517 -14.10626221 69.17492676 C-18.71328801 73.77169509 -23.31745913 78.37132077 -27.921875 82.97070312 C-36.94513302 91.98325932 -45.97146348 100.99273182 -55 110 C-56.11268262 109.05340292 -57.22434643 108.10560819 -58.33558655 107.15731812 C-58.9547548 106.62964529 -59.57392305 106.10197247 -60.21185398 105.55830956 C-62.59526944 103.48124255 -64.83076672 101.28145049 -67.05859375 99.0390625 C-67.93837891 98.15605469 -68.81816406 97.27304687 -69.72460938 96.36328125 C-70.61986328 95.45964844 -71.51511719 94.55601562 -72.4375 93.625 C-73.35982422 92.69816406 -74.28214844 91.77132812 -75.23242188 90.81640625 C-77.49058625 88.54654154 -79.74636942 86.27436462 -82 84 C-80.63415283 80.94224821 -79.08911635 78.84118809 -76.72238159 76.48187256 C-75.70855911 75.46392609 -75.70855911 75.46392609 -74.67425537 74.42541504 C-73.93338684 73.69173706 -73.19251831 72.95805908 -72.42919922 72.20214844 C-71.64862152 71.42127869 -70.86804382 70.64040894 -70.06381226 69.83587646 C-67.48214955 67.25560727 -64.89347442 64.68249478 -62.3046875 62.109375 C-60.51349081 60.32190835 -58.72273512 58.53399968 -56.93240356 56.7456665 C-52.70039428 52.52051369 -48.46396242 48.2998454 -44.22535431 44.08131623 C-39.39920285 39.27753114 -34.57873937 34.46805558 -29.75874305 29.65809584 C-19.84547392 19.76572333 -9.92509034 9.88051113 0 0 Z " fill="#FFFDFB" transform="translate(194,290)"/>
<path d="M0 0 C3.05775179 1.36584717 5.15881191 2.91088365 7.51812744 5.27761841 C8.19675842 5.95350006 8.8753894 6.62938171 9.57458496 7.32574463 C10.30826294 8.06661316 11.04194092 8.80748169 11.79785156 9.57080078 C12.57872131 10.35137848 13.35959106 11.13195618 14.16412354 11.93618774 C16.74439273 14.51785045 19.31750522 17.10652558 21.890625 19.6953125 C23.67809165 21.48650919 25.46600032 23.27726488 27.2543335 25.06759644 C31.47948631 29.29960572 35.7001546 33.53603758 39.91868377 37.77464569 C44.72246886 42.60079715 49.53194442 47.42126063 54.34190416 52.24125695 C64.23427667 62.15452608 74.11948887 72.07490966 84 82 C82.22825985 85.79759002 79.83790531 88.50053779 76.9140625 91.45703125 C76.41587006 91.96425217 75.91767761 92.47147308 75.40438843 92.99406433 C74.35305388 94.0598617 73.29892403 95.12290806 72.2421875 96.18334961 C70.62503039 97.81246938 69.02746275 99.45931719 67.4296875 101.10742188 C66.40479838 102.14176828 65.37879397 103.17501104 64.3515625 104.20703125 C63.87538483 104.70274124 63.39920715 105.19845123 62.90859985 105.70918274 C61.53369141 107.06567383 61.53369141 107.06567383 59 109 C55.53812071 108.67922655 53.84362584 107.21556819 51.44390869 104.80467224 C50.75686356 104.1217511 50.06981842 103.43882996 49.36195374 102.73521423 C48.24741066 101.60449242 48.24741066 101.60449242 47.11035156 100.45092773 C45.92441658 99.26564987 45.92441658 99.26564987 44.71452332 98.056427 C42.09938504 95.4391964 39.49503685 92.81149491 36.890625 90.18359375 C35.08095612 88.36833053 33.27062437 86.55372792 31.45965576 84.73976135 C27.17951967 80.44933575 22.90613327 76.15229778 18.63593364 71.85199076 C13.77366304 66.95618523 8.90286864 62.06889802 4.03133821 57.18230903 C-5.98862364 47.13099156 -15.99782939 37.06901963 -26 27 C-25.05340292 25.88731738 -24.10560819 24.77565357 -23.15731812 23.66441345 C-22.62964529 23.0452452 -22.10197247 22.42607695 -21.55830956 21.78814602 C-19.48124255 19.40473056 -17.28145049 17.16923328 -15.0390625 14.94140625 C-14.15605469 14.06162109 -13.27304687 13.18183594 -12.36328125 12.27539062 C-11.45964844 11.38013672 -10.55601562 10.48488281 -9.625 9.5625 C-8.69816406 8.64017578 -7.77132813 7.71785156 -6.81640625 6.76757812 C-4.54654154 4.50941375 -2.27436462 2.25363058 0 0 Z " fill="#FFFDFB" transform="translate(316,291)"/>
<path d="M0 0 C3.93712187 1.82075671 6.63336039 4.37649498 9.640625 7.4453125 C10.16767029 7.97518768 10.69471558 8.50506287 11.23773193 9.05099487 C12.91325675 10.73767825 14.58167722 12.43119564 16.25 14.125 C17.38755851 15.27259388 18.52557436 16.41973461 19.6640625 17.56640625 C22.44803465 20.37238137 25.2256576 23.18450464 28 26 C23.67574039 31.15978531 19.15005359 36.01321816 14.40576172 40.78710938 C13.67003937 41.53100922 12.93431702 42.27490906 12.17630005 43.04135132 C9.7637801 45.4784978 7.3472972 47.91165284 4.9296875 50.34375 C4.1017078 51.17705338 3.2737281 52.01035675 2.42065811 52.86891174 C-1.95087747 57.26706165 -6.32600125 61.6616096 -10.70361328 66.05371094 C-14.32848221 69.69198895 -17.94591879 73.33742301 -21.55712891 76.98925781 C-25.92318363 81.40441602 -30.30118551 85.80737414 -34.68828964 90.20161438 C-36.35834774 91.87840911 -38.02412913 93.55947435 -39.68558121 95.24479675 C-42.00041115 97.59101293 -44.33026522 99.92120976 -46.66455078 102.24804688 C-47.35139954 102.95130096 -48.03824829 103.65455505 -48.74591064 104.37911987 C-49.38221405 105.0071048 -50.01851746 105.63508972 -50.67410278 106.28210449 C-51.22307283 106.83438469 -51.77204288 107.38666489 -52.33764839 107.95568085 C-54 109 -54 109 -56.04179192 108.81465912 C-59.19151925 107.50430088 -61.30411299 105.0605916 -63.640625 102.65234375 C-64.16767029 102.12105362 -64.69471558 101.58976349 -65.23773193 101.04237366 C-66.91567187 99.34767175 -68.58286728 97.64282783 -70.25 95.9375 C-71.38732745 94.78512255 -72.52534066 93.63342148 -73.6640625 92.48242188 C-76.45071992 89.66272816 -79.22778792 86.83389412 -82 84 C-80.63415283 80.94224821 -79.08911635 78.84118809 -76.72238159 76.48187256 C-75.70855911 75.46392609 -75.70855911 75.46392609 -74.67425537 74.42541504 C-73.93338684 73.69173706 -73.19251831 72.95805908 -72.42919922 72.20214844 C-71.64862152 71.42127869 -70.86804382 70.64040894 -70.06381226 69.83587646 C-67.48214955 67.25560727 -64.89347442 64.68249478 -62.3046875 62.109375 C-60.51349081 60.32190835 -58.72273512 58.53399968 -56.93240356 56.7456665 C-52.70039428 52.52051369 -48.46396242 48.2998454 -44.22535431 44.08131623 C-39.39920285 39.27753114 -34.57873937 34.46805558 -29.75874305 29.65809584 C-19.84547392 19.76572333 -9.92509034 9.88051113 0 0 Z " fill="#FFFDFB" transform="translate(373,112)"/>
<path d="M0 0 C12.54 0 25.08 0 38 0 C38 38.94 38 77.88 38 118 C25.46 118 12.92 118 0 118 C0 79.06 0 40.12 0 0 Z " fill="#FFFEFD" transform="translate(237,323)"/>
<path d="M0 0 C38.94 0 77.88 0 118 0 C118 12.54 118 25.08 118 38 C79.06 38 40.12 38 0 38 C0 25.46 0 12.92 0 0 Z " fill="#FFFEFD" transform="translate(323,237)"/>
<path d="M0 0 C38.94 0 77.88 0 118 0 C118 12.54 118 25.08 118 38 C79.06 38 40.12 38 0 38 C0 25.46 0 12.92 0 0 Z " fill="#FFFEFD" transform="translate(71,237)"/>
<path d="M0 0 C12.54 0 25.08 0 38 0 C38 38.94 38 77.88 38 118 C25.46 118 12.92 118 0 118 C0 79.06 0 40.12 0 0 Z " fill="#FFFEFD" transform="translate(237,71)"/>
</svg>
