<?xml version="1.0" encoding="UTF-8"?>
<svg version="1.1" xmlns="http://www.w3.org/2000/svg" width="512" height="512">
<path d="M0 0 C2.70068359 2.24658203 2.70068359 2.24658203 5.3984375 5.0078125 C5.8782608 5.49329559 6.35808411 5.97877869 6.85244751 6.47897339 C8.3696884 8.01844877 9.87235552 9.57128777 11.375 11.125 C12.40661729 12.17669901 13.43916079 13.22749034 14.47265625 14.27734375 C16.9925693 16.84115143 19.49961065 19.41713143 22 22 C25.63002267 20.48091162 27.82690229 18.34008179 30.51953125 15.5 C31.37740234 14.613125 32.23527344 13.72625 33.11914062 12.8125 C34.9091172 10.94334389 36.69302896 9.06836025 38.47070312 7.1875 C47.18378539 -1.77974099 47.18378539 -1.77974099 53 -2 C59.30990457 0.53204535 61.80802076 4.25914518 65.40409851 9.89778137 C76.41952809 26.87698947 91.56222394 46.52765826 112.05060577 51.78240204 C141.94122824 57.578271 174.42259279 54.80855303 204.6098175 52.75846863 C205.67981774 52.68949277 206.74981798 52.62051691 207.85224247 52.54945087 C209.84083123 52.41743539 211.82855215 52.27124466 213.81481838 52.10796642 C218.79104145 51.77711351 221.94575914 51.67766284 226 55 C227.79988399 56.79988399 227.11993004 59.24999876 227.12442017 61.64555359 C227.12082489 62.45547256 227.11722961 63.26539154 227.11352539 64.09985352 C227.11367142 64.94856018 227.11381744 65.79726685 227.1139679 66.67169189 C227.11326848 69.49078891 227.10547478 72.30982071 227.09765625 75.12890625 C227.09579217 77.07803817 227.09436822 79.02717055 227.09336853 80.9763031 C227.08954255 86.11706832 227.07971159 91.25780547 227.06866455 96.39855957 C227.05845215 101.64005148 227.05387128 106.8815479 227.04882812 112.12304688 C227.03808939 122.41537694 227.02101201 132.70768614 227 143 C228.86918091 142.96072388 228.86918091 142.96072388 230.77612305 142.9206543 C235.40712471 142.8300344 240.0380483 142.77270772 244.66967773 142.7253418 C246.67274156 142.7002245 248.67571398 142.66612405 250.6784668 142.62280273 C253.56061366 142.56202812 256.44154721 142.53376268 259.32421875 142.51171875 C260.21711105 142.48591232 261.11000336 142.4601059 262.029953 142.43351746 C266.2081495 142.43164009 268.45018906 142.66096537 272.06925964 144.8926239 C274.84192038 149.35500522 274.6638361 153.04779094 274.56762695 158.20629883 C274.56835709 159.23115387 274.56908722 160.25600891 274.56983948 161.31192017 C274.56636037 164.69416513 274.52748186 168.07502732 274.48828125 171.45703125 C274.47895433 173.80400337 274.47183765 176.15098524 274.46684265 178.49797058 C274.44776364 184.67136573 274.39865391 190.8441715 274.34332275 197.01733398 C274.29215044 203.31811551 274.26933285 209.61899239 274.24414062 215.91992188 C274.19053698 228.28020669 274.10521235 240.64005431 274 253 C274.60038086 252.98549805 275.20076172 252.97099609 275.81933594 252.95605469 C276.61629883 252.94477539 277.41326172 252.93349609 278.234375 252.921875 C279.02038086 252.90737305 279.80638672 252.89287109 280.61621094 252.87792969 C286.61490957 253.18511417 291.73311728 255.8516418 296 260 C300.13594392 265.62947923 301.15210651 269.62016227 301.19287109 276.46557617 C301.20104858 277.22369598 301.20922607 277.9818158 301.21765137 278.76290894 C301.24247049 281.27292092 301.2590145 283.78287638 301.2734375 286.29296875 C301.28142302 287.58122275 301.28142302 287.58122275 301.28956985 288.89550209 C301.3162893 293.44342786 301.33566602 297.99132632 301.35009766 302.53930664 C301.36342411 306.29606545 301.3912541 310.05227944 301.43212891 313.80883789 C301.48154947 318.35111026 301.50623041 322.89288935 301.51332474 327.43541908 C301.52002136 329.16212664 301.53520198 330.88882387 301.55921555 332.61537743 C301.78716556 349.99987484 301.78716556 349.99987484 296 356 C291.64731599 360.45160865 287.06168405 362.80706058 281 364 C278.66674552 364.01918256 276.33323945 364.02093126 274 364 C274.00368717 364.54776218 274.00737434 365.09552437 274.01117325 365.65988541 C274.09951292 378.9885154 274.16544859 392.31709411 274.20724869 405.64595413 C274.22814134 412.09171694 274.25649018 418.53726878 274.30175781 424.98291016 C274.34515483 431.20096669 274.36912446 437.41882003 274.37950897 443.6370163 C274.38691132 446.01174876 274.401366 448.38646985 274.42292023 450.76111603 C274.4518717 454.08220123 274.45595935 457.40244214 274.45410156 460.72363281 C274.46848267 461.70978073 274.48286377 462.69592865 274.49768066 463.71195984 C274.45732975 470.35910757 274.45732975 470.35910757 272.15911865 473.57977295 C268.12143167 476.2356864 264.7412694 476.12604536 260.01696301 476.12863445 C259.29844863 476.13038749 258.57993426 476.13214053 257.83964673 476.13394669 C255.41335781 476.13862719 252.98712828 476.13613591 250.56083679 476.13371277 C248.81105987 476.13557974 247.06128336 476.13787998 245.31150752 476.14057809 C240.48823899 476.14671715 235.66498773 476.14656002 230.84171617 476.14538372 C225.64513083 476.14518023 220.44855112 476.15069368 215.25196838 476.15544128 C205.06281788 476.16376116 194.87367316 476.16649677 184.68451955 476.16705366 C176.40000309 476.16752842 168.11548853 476.16958118 159.83097267 476.17275429 C136.34582833 476.18156641 112.86068856 476.18617308 89.37554254 476.18542381 C88.10845677 476.18538386 86.84137099 476.1853439 85.53588867 476.18530273 C84.26725563 476.18526185 82.99862259 476.18522097 81.69154612 476.18517885 C61.15056579 476.18477277 40.60960383 476.19433136 20.06862881 476.2084411 C-1.01982649 476.22281254 -22.10827285 476.22971078 -43.19673318 476.22884732 C-55.03716728 476.2285155 -66.87758216 476.23125583 -78.71801186 476.24202538 C-88.80463356 476.25114071 -98.89122733 476.25329732 -108.97785137 476.24651595 C-114.121778 476.24325528 -119.26565109 476.24317758 -124.4095726 476.2518692 C-129.1257126 476.25975572 -133.84175677 476.25828082 -138.55789449 476.24958507 C-140.25723555 476.24805475 -141.95658384 476.24984845 -143.65591637 476.25544515 C-162.37666098 476.31297967 -179.37466907 475.04115582 -194 462 C-194.61488281 461.47792969 -195.22976562 460.95585937 -195.86328125 460.41796875 C-204.39330047 452.64449226 -210.25304363 441.38178423 -211.27997494 429.8583312 C-211.39121428 426.21788342 -211.40947361 422.58811994 -211.39440918 418.94598389 C-211.39930585 417.54076917 -211.40549922 416.13555848 -211.41286707 414.73035455 C-211.42919167 410.89197871 -211.42696403 407.05380926 -211.4214921 403.21541095 C-211.4188126 399.06665226 -211.43337097 394.91794745 -211.44558716 390.76921082 C-211.46660509 382.6497947 -211.47118408 374.53045005 -211.46939927 366.41100994 C-211.46808973 359.80809867 -211.47190559 353.20520963 -211.47932434 346.60230255 C-211.48142363 344.69762238 -211.48352123 342.79294221 -211.48561716 340.88826203 C-211.48666069 339.94013163 -211.48770422 338.99200123 -211.48877937 338.01513961 C-211.50766731 320.09731245 -211.50663607 302.17952626 -211.49981004 284.26169327 C-211.49423653 267.88877777 -211.51505442 251.51601884 -211.54817051 235.14313993 C-211.58194729 218.31233758 -211.59707082 201.48161015 -211.59245348 184.65077329 C-211.59021271 175.20925024 -211.59539435 165.76787187 -211.62034607 156.32637787 C-211.64141084 148.28750987 -211.64490008 140.24886586 -211.62604648 132.2099885 C-211.61692015 128.1129455 -211.61564947 124.01631955 -211.63640213 119.91930962 C-211.65523322 116.15988935 -211.65047508 112.40122415 -211.62785631 108.64183155 C-211.62175038 106.65638576 -211.63996491 104.67090962 -211.65939283 102.6855495 C-211.5327997 89.71513233 -207.86454761 78.57294559 -199 69 C-198.45472656 68.37609375 -197.90945312 67.7521875 -197.34765625 67.109375 C-188.47052021 57.5011807 -176.8892367 52.94692033 -164 52 C-160.83197473 52.05661574 -157.69333505 52.3267679 -154.5378418 52.60400391 C-97.57492663 59.45627332 -97.57492663 59.45627332 -46.01744652 41.31332397 C-33.01154947 30.17409945 -22.19455244 16.4663434 -12.85105896 2.16993713 C-8.9057552 -2.4550161 -5.28679592 -2.51325488 0 0 Z " fill="#AA5D23" transform="translate(211,19)"/>
<path d="M0 0 C2.70068359 2.24658203 2.70068359 2.24658203 5.3984375 5.0078125 C5.8782608 5.49329559 6.35808411 5.97877869 6.85244751 6.47897339 C8.3696884 8.01844877 9.87235552 9.57128777 11.375 11.125 C12.40661729 12.17669901 13.43916079 13.22749034 14.47265625 14.27734375 C16.9925693 16.84115143 19.49961065 19.41713143 22 22 C25.63002267 20.48091162 27.82690229 18.34008179 30.51953125 15.5 C31.37740234 14.613125 32.23527344 13.72625 33.11914062 12.8125 C34.9091172 10.94334389 36.69302896 9.06836025 38.47070312 7.1875 C47.18378539 -1.77974099 47.18378539 -1.77974099 53 -2 C60.38489691 1.22838333 65.58207364 7.18360229 71.15625 12.828125 C72.22748122 13.90242058 73.29931014 14.97612047 74.3717041 16.04925537 C76.61195298 18.2940904 78.84722657 20.54371948 81.07861328 22.79736328 C83.91937839 25.66634018 86.76868025 28.52663779 89.62134552 31.38377762 C92.36530011 34.1329248 95.10457827 36.88671384 97.84375 39.640625 C98.35706375 40.15581947 98.8703775 40.67101395 99.39924622 41.20182037 C100.87486265 42.68442297 102.34707625 44.17032503 103.81835938 45.65722656 C105.06909241 46.9182016 105.06909241 46.9182016 106.34509277 48.20465088 C108.39497361 50.36296832 110.3506681 52.54364231 112.29225159 54.79621887 C116.17342521 59.26227641 120.3089725 63.43514558 124.50561523 67.60327148 C125.32593735 68.42213333 126.14625946 69.24099518 126.99143982 70.08467102 C128.75869797 71.84814591 130.52710965 73.61046541 132.29656792 75.37173271 C135.09292723 78.1552698 137.8861776 80.94190453 140.67848206 83.72950745 C146.59517642 89.63516077 152.51613449 95.53653082 158.4375 101.4375 C165.3239283 108.30027801 172.20867134 115.16473025 179.08928108 122.03334236 C181.84830445 124.7858582 184.61030797 127.53536014 187.37242126 130.28477478 C189.04847589 131.95720008 190.72439207 133.62976413 192.40014648 135.30249023 C193.17461121 136.07178864 193.94907593 136.84108704 194.74700928 137.63369751 C195.4436821 138.33029984 196.14035492 139.02690216 196.85813904 139.74461365 C197.46849219 140.35274619 198.07884535 140.96087873 198.70769405 141.58743954 C200 143 200 143 200 144 C83.51 144 -32.98 144 -153 144 C-146.25025698 136.12529981 -146.25025698 136.12529981 -143.13661194 133.02308655 C-142.43169113 132.31823624 -141.72677032 131.61338593 -141.00048828 130.88717651 C-139.87114868 129.7655864 -139.87114868 129.7655864 -138.71899414 128.62133789 C-137.9100621 127.81386612 -137.10113007 127.00639435 -136.26768494 126.17445374 C-134.52061127 124.43116909 -132.77238382 122.68904012 -131.02311897 120.94795418 C-128.25011664 118.18777872 -125.48030548 115.42443623 -122.71128845 112.66026306 C-116.33276342 106.29373023 -109.94922171 99.93223533 -103.56560516 93.57080841 C-97.24586301 87.27292574 -90.92813689 80.97303734 -84.61379814 74.66973686 C-81.89335048 71.95574209 -79.16989328 69.24479262 -76.44630432 66.53395081 C-74.76752066 64.85880208 -73.08887859 63.18351144 -71.41040039 61.50805664 C-70.65953156 60.76235413 -69.90866272 60.01665161 -69.13504028 59.24835205 C-65.11135982 55.22507238 -61.27836881 51.10247818 -57.56322765 46.79298687 C-55.51114338 44.43929248 -53.35175088 42.21013895 -51.15380859 39.99267578 C-50.26954193 39.09880157 -49.38527527 38.20492737 -48.47421265 37.28396606 C-47.53256438 36.33747276 -46.59063261 35.39126144 -45.6484375 34.4453125 C-44.92272993 33.71536386 -44.92272993 33.71536386 -44.1823616 32.97066879 C-41.63108138 30.40452999 -39.07704464 27.84117501 -36.52050781 25.28027344 C-33.88997738 22.64422077 -31.26888475 19.99898391 -28.649786 17.35157967 C-26.62161053 15.30477348 -24.58675113 13.26471299 -22.55000687 11.22643661 C-21.58031155 10.25372456 -20.61310593 9.27852364 -19.64850998 8.30075455 C-18.30193429 6.9370809 -16.94487208 5.58378659 -15.58740234 4.23095703 C-14.82019867 3.46010773 -14.052995 2.68925842 -13.26254272 1.89505005 C-8.60477095 -2.00618484 -5.51635201 -2.62238203 0 0 Z " fill="#78A017" transform="translate(211,19)"/>
<path d="M0 0 C1.18202625 -0.01695388 1.18202625 -0.01695388 2.38793182 -0.03425026 C3.08954563 -0.04863986 3.79115944 -0.06302946 4.51403427 -0.07785511 C10.35623719 0.2704275 15.42810434 3.01875967 19.56902313 7.04465294 C23.70496705 12.67413217 24.72112965 16.66481521 24.76189423 23.51022911 C24.77416046 24.64740883 24.77416046 24.64740883 24.7866745 25.80756187 C24.81149362 28.31757386 24.82803763 30.82752932 24.84246063 33.33762169 C24.84778431 34.19645769 24.85310799 35.05529369 24.85859299 35.94015503 C24.88531243 40.48808079 24.90468915 45.03597925 24.91912079 49.58395958 C24.93244724 53.34071839 24.96027723 57.09693238 25.00115204 60.85349083 C25.0505726 65.3957632 25.07525354 69.93754229 25.08234787 74.48007202 C25.0890445 76.20677958 25.10422511 77.93347681 25.12823868 79.66003036 C25.35618869 97.04452778 25.35618869 97.04452778 19.56902313 103.04465294 C14.105607 108.63223762 7.64375149 111.11653319 -0.12174225 111.38764 C-1.80871358 111.38773408 -3.49574326 111.37138163 -5.18244171 111.34103966 C-6.57705376 111.33429474 -6.57705376 111.33429474 -7.99983978 111.32741356 C-11.04754644 111.30846808 -14.09445676 111.26716094 -17.14191437 111.22434044 C-19.27745455 111.20388642 -21.413004 111.18438095 -23.5485611 111.16577721 C-28.0154014 111.12334747 -32.48193601 111.06989778 -36.94855499 111.00852013 C-42.64968189 110.93099594 -48.35067017 110.88019667 -54.05215263 110.83763504 C-58.46028388 110.8018613 -62.86817513 110.75214069 -67.27611923 110.69828224 C-69.37704485 110.67419338 -71.47802281 110.65427115 -73.57902908 110.63873482 C-91.47115196 110.49326312 -108.05752429 108.72465312 -121.81769562 95.81809044 C-133.64225342 82.81966612 -139.12892558 68.02882599 -138.74347687 50.63059044 C-138.00221945 35.7004306 -130.12111212 23.07615426 -119.43097687 13.04465294 C-105.14013386 1.86429783 -91.58210548 0.29764275 -74.13410187 0.33762169 C-72.08914486 0.32447521 -70.04420076 0.30916207 -67.99927521 0.29179955 C-62.65000245 0.25216106 -57.30107001 0.24177544 -51.95166779 0.23776817 C-46.51627982 0.22843651 -41.08109335 0.19094213 -35.64582062 0.15598106 C-25.32844162 0.09399851 -15.01079646 0.04091401 -4.69319153 0.0512352 C-3.12870776 0.04668309 -1.56422654 0.0287322 0 0 Z " fill="#F89508" transform="translate(487.4309768676758,271.9553470611572)"/>
<path d="M0 0 C6.53577844 5.10606411 12.31360819 11.16763421 18.16015625 17.02734375 C19.1182986 17.98481025 20.07658916 18.94212845 21.03501892 19.89930725 C23.03091287 21.89373747 25.02501452 23.88993741 27.01782227 25.88745117 C29.55141863 28.42674399 32.08947983 30.96151903 34.62891483 33.49497128 C36.60490703 35.46732184 38.57847679 37.44208263 40.55135918 39.41754341 C41.93410599 40.80126628 43.3188393 42.18300314 44.70362854 43.56468201 C48.32392264 47.19833001 51.90181539 50.818216 55.22265625 54.72924805 C60.28532744 60.61587492 65.89726036 65.98957464 71.40745354 71.45205307 C73.49850582 73.52556724 75.58586731 75.60273313 77.67225647 77.68093872 C83.59892831 83.58326851 89.53138366 89.47976113 95.46801758 95.37207031 C99.1112482 98.98860375 102.74966195 102.60992466 106.38510323 106.23428726 C107.77037651 107.61333917 109.15754596 108.99048901 110.54661369 110.36571884 C112.47822396 112.27822998 114.40370366 114.19671416 116.32788086 116.11669922 C116.90598007 116.68603683 117.48407928 117.25537445 118.07969666 117.84196472 C122 121.77210071 122 121.77210071 122 124 C108.32980615 128.28685999 93.33692143 130.28558647 80 124 C59.03734535 110.57081692 41.7948925 88.55542406 25.58719826 69.92965126 C21.84344759 65.54143774 21.84344759 65.54143774 16.55859375 63.6953125 C13.51378325 64.05790062 12.37156304 64.90119969 10.0625 66.875 C3.76838205 71.84465738 -2.10612376 72.80447146 -10 72 C-14.80303236 70.45326076 -18.3844505 68.1650519 -22.2265625 64.98828125 C-24.68773728 63.61674552 -26.20375037 63.69112075 -29 64 C-36.50623361 69.03909452 -42.32289533 76.59899074 -48.19301605 83.3956871 C-84.69150302 125.29686894 -84.69150302 125.29686894 -102.921875 127.3515625 C-113.08063372 127.99139019 -123.17647639 126.53364824 -133 124 C-128.27773141 118.32050801 -123.22193581 113.09158935 -117.98461914 107.88696289 C-117.09765854 107.00146255 -116.21069794 106.11596222 -115.29685974 105.20362854 C-113.37952775 103.29008832 -111.46132439 101.37747323 -109.54155159 99.4663868 C-106.49931503 96.43777222 -103.46098529 93.40525805 -100.42320251 90.37217712 C-93.42543206 83.38640608 -86.42264708 76.40566891 -79.41979218 69.42499542 C-72.99965704 63.02509566 -66.58061457 56.62410981 -60.16562933 50.21904749 C-57.15249728 47.21086519 -54.13695215 44.20513038 -51.1194669 41.20131505 C-48.79256501 38.8836961 -46.46894887 36.56278622 -44.14477539 34.24243164 C-43.31910065 33.42192322 -42.4934259 32.60141479 -41.64273071 31.75604248 C-37.40738736 27.52108436 -33.3306164 23.21096233 -29.43200779 18.66306019 C-26.26051623 14.97985302 -22.79794173 11.57213213 -19.375 8.125 C-18.63765625 7.36703125 -17.9003125 6.6090625 -17.140625 5.828125 C-16.42132813 5.10367187 -15.70203125 4.37921875 -14.9609375 3.6328125 C-14.31946777 2.98199707 -13.67799805 2.33118164 -13.01708984 1.66064453 C-8.46124692 -2.09012327 -5.29371598 -2.59495881 0 0 Z " fill="#89CB18" transform="translate(268,19)"/>
<path d="M0 0 C0.99603241 -0.00014603 1.99206482 -0.00029205 3.01828003 -0.0004425 C6.28629795 0.00025005 9.55425775 0.00801153 12.82226562 0.01586914 C15.09769662 0.01773566 17.37312803 0.01915846 19.64855957 0.02015686 C25.61943686 0.02396365 31.5902896 0.03377816 37.56115723 0.04486084 C43.66121081 0.05511457 49.76126839 0.05966295 55.86132812 0.06469727 C67.81706805 0.07540215 79.77278979 0.09245639 91.72851562 0.11352539 C87.20041646 5.49561364 82.47387683 10.63195266 77.60961914 15.7109375 C76.81663422 16.54101318 76.02364929 17.37108887 75.20663452 18.22631836 C67.91321488 25.84388998 60.55813729 33.40134089 53.17953587 40.93631649 C48.23614678 45.98709197 43.31667721 51.05734629 38.44995117 56.18212891 C34.18268945 60.67559139 29.87522132 65.12571716 25.51633018 69.53041655 C23.21877796 71.85482551 20.95180181 74.19932724 18.7185688 76.58582878 C3.39703273 92.91222593 3.39703273 92.91222593 -8.40960026 93.49797153 C-22.89550581 93.25758754 -35.83102712 89.3498553 -46.58398438 79.36352539 C-55.78020587 69.64711359 -57.96210333 57.66824461 -57.64648438 44.76977539 C-57.02769899 34.00290969 -52.54500077 24.96829471 -45.27148438 17.11352539 C-44.72621094 16.48961914 -44.1809375 15.86571289 -43.61914062 15.22290039 C-31.84311367 2.47708298 -16.56971295 -0.06440199 0 0 Z " fill="#7B3D1D" transform="translate(57.271484375,70.886474609375)"/>
<path d="M0 0 C2.02776363 1.69801714 3.8012048 3.33117099 5.6171875 5.2265625 C6.37021652 5.98808121 6.37021652 5.98808121 7.13845825 6.76498413 C8.72701088 8.37578288 10.30102244 9.99996931 11.875 11.625 C12.95479553 12.72487571 14.03551594 13.82384422 15.1171875 14.921875 C17.75560781 17.60420613 20.38108377 20.29862819 23 23 C21.54190191 26.35483438 19.69713436 28.55011664 17.11495972 31.12554932 C16.3044516 31.93880676 15.49394348 32.75206421 14.65887451 33.58996582 C13.32315399 34.91490051 13.32315399 34.91490051 11.96044922 36.26660156 C11.0139238 37.21256265 10.06783893 38.15896473 9.12216187 39.10577393 C6.55657326 41.67193618 3.98486641 44.23188665 1.41201925 46.79076862 C-1.27681834 49.46710097 -3.95999062 52.1491008 -6.64376831 54.83050537 C-11.72543613 59.90595783 -16.81218055 64.97629063 -21.90076721 70.04480529 C-27.69424818 75.81592905 -33.48204897 81.59273507 -39.2693789 87.37002611 C-51.17327764 99.25302156 -63.08503356 111.1281005 -75 123 C-54.705 123.495 -54.705 123.495 -34 124 C-35.98 126.31 -37.96 128.62 -40 131 C-40.80147461 132.08313477 -41.60294922 133.16626953 -42.42871094 134.28222656 C-46.51289344 139.46488402 -50.25044666 143.08381299 -56.99804688 143.96289062 C-62.76377197 144.32451567 -68.48770048 144.05093796 -74.25 143.75 C-76.26676713 143.68970122 -78.28370869 143.63496697 -80.30078125 143.5859375 C-85.20488632 143.45474016 -90.10048789 143.24835063 -95 143 C-89.67067802 136.51839219 -84.02123282 131.02123282 -78 125 C-95.82 124.67 -113.64 124.34 -132 124 C-130.41268664 120.82537329 -129.61845572 119.36935591 -127.26301575 117.02923584 C-126.70663422 116.47155014 -126.15025269 115.91386444 -125.57701111 115.33927917 C-124.96869949 114.73972916 -124.36038788 114.14017914 -123.73364258 113.52246094 C-123.09110535 112.88123795 -122.44856812 112.24001495 -121.78656006 111.57936096 C-119.66044075 109.45973381 -117.527436 107.34717215 -115.39453125 105.234375 C-113.91149371 103.75761126 -112.42897241 102.28032893 -110.94694519 100.80255127 C-107.0395264 96.90844281 -103.12659061 93.01992943 -99.21203613 89.13299561 C-92.96332514 82.92735835 -86.72119424 76.71512201 -80.48245811 70.49945831 C-78.30970668 68.33686264 -76.13353436 66.17775471 -73.95698547 64.01898193 C-72.6089809 62.67781372 -71.26108995 61.3365313 -69.91333008 59.99511719 C-69.31513962 59.40366409 -68.71694916 58.812211 -68.10063171 58.20283508 C-64.43824566 54.55017928 -60.9987567 50.75848406 -57.61585903 46.84617615 C-55.54290206 44.47774942 -53.3692881 42.22783193 -51.15380859 39.99267578 C-50.26954193 39.09880157 -49.38527527 38.20492737 -48.47421265 37.28396606 C-47.53256438 36.33747276 -46.59063261 35.39126144 -45.6484375 34.4453125 C-44.92272993 33.71536386 -44.92272993 33.71536386 -44.1823616 32.97066879 C-41.63108138 30.40452999 -39.07704464 27.84117501 -36.52050781 25.28027344 C-33.88997738 22.64422077 -31.26888475 19.99898391 -28.649786 17.35157967 C-26.62161053 15.30477348 -24.58675113 13.26471299 -22.55000687 11.22643661 C-21.58031155 10.25372456 -20.61310593 9.27852364 -19.64850998 8.30075455 C-18.30193429 6.9370809 -16.94487208 5.58378659 -15.58740234 4.23095703 C-14.82019867 3.46010773 -14.052995 2.68925842 -13.26254272 1.89505005 C-8.60765047 -2.00377303 -5.51012913 -2.63243033 0 0 Z " fill="#78A816" transform="translate(211,19)"/>
<path d="M0 0 C14.51659693 -0.07010698 29.03316758 -0.12279693 43.5498991 -0.15543652 C50.29040374 -0.17089995 57.03080314 -0.19197931 63.77124023 -0.22631836 C70.27456582 -0.25943363 76.77782308 -0.27684723 83.28122902 -0.28463173 C85.76397232 -0.29018025 88.24670955 -0.30101494 90.72940636 -0.31719017 C94.20344415 -0.33892659 97.67702833 -0.34196844 101.15112305 -0.34057617 C102.18042938 -0.351362 103.20973572 -0.36214783 104.27023315 -0.3732605 C109.84795016 -0.34902846 113.84663586 -0.15336414 118 4 C118.09516211 6.7388842 118.12554594 9.45247941 118.11352539 12.19165039 C118.11367142 13.05011063 118.11381744 13.90857086 118.1139679 14.79304504 C118.11326847 17.64460738 118.1054747 20.49610525 118.09765625 23.34765625 C118.09579218 25.31920842 118.09436822 27.29076105 118.09336853 29.26231384 C118.08954251 34.46226267 118.07971152 39.66218375 118.06866455 44.86212158 C118.05845222 50.16393661 118.05387129 55.4657561 118.04882812 60.76757812 C118.03808933 71.17839763 118.02101191 81.58919651 118 92 C106.85120294 93.65770774 94.73939573 95.22394006 85.05410767 88.47439575 C79.58074778 83.95459403 74.69854664 78.86178054 69.88681626 73.65738416 C67.45833099 71.06126932 64.95100408 68.54339978 62.45207214 66.0153656 C57.75322515 61.23843743 53.12770854 56.39678397 48.52566975 51.52672571 C43.27603918 45.97890541 37.94434031 40.51288257 32.60631907 35.0502826 C24.32669541 26.57265677 16.09117907 18.05410781 7.92504883 9.46704102 C7.11654984 8.61971909 6.30805084 7.77239716 5.47505188 6.8993988 C4.74838318 6.13233612 4.02171448 5.36527344 3.27302551 4.57496643 C2.63702832 3.90482293 2.00103113 3.23467943 1.3457613 2.54422855 C0 1 0 1 0 0 Z " fill="#7C3C1D" transform="translate(320,71)"/>
<path d="M0 0 C2.63382414 0.11861445 5.26795307 0.23065342 7.90234375 0.3359375 C14.31538072 0.60645956 20.71988516 0.95833129 27.125 1.375 C23.34869848 5.89072304 19.44890572 10.18775974 15.25 14.3125 C14.75242188 14.80556641 14.25484375 15.29863281 13.7421875 15.80664062 C12.53879715 16.99845992 11.33224635 18.18708678 10.125 19.375 C15.77581337 19.82715782 21.41573292 20.14951713 27.08056641 20.36376953 C28.99649511 20.45317313 30.91123634 20.57518764 32.82275391 20.73291016 C34.20406494 20.8438501 34.20406494 20.8438501 35.61328125 20.95703125 C36.82600708 21.06905884 36.82600708 21.06905884 38.06323242 21.18334961 C46.66826561 21.3999853 46.66826561 21.3999853 53.92266083 17.58493805 C54.97563749 16.04959519 56.01555577 14.50524305 57.04466057 12.95379829 C61.59570838 6.48125822 66.85424814 1.84442879 74.67653275 0.27033615 C87.79849186 -1.69813477 101.27138661 -1.36422928 114.50428534 -1.3106513 C119.19613511 -1.30262893 123.88669353 -1.35185257 128.57823861 -1.40103257 C139.65776709 -1.51678933 150.73492865 -1.54287855 161.81494141 -1.50878906 C173.19561781 -1.47505504 184.56898856 -1.57886998 195.94823158 -1.7530936 C205.76642537 -1.8993129 215.58296138 -1.96633739 225.40224373 -1.96980298 C231.24588523 -1.97218906 237.08583436 -2.0015531 242.92864609 -2.10457993 C283.54323655 -2.76176832 283.54323655 -2.76176832 294.53303719 7.64701653 C304.125 18.02532656 304.125 18.02532656 304.125 21.375 C187.635 21.375 71.145 21.375 -48.875 21.375 C-46.895 19.065 -44.915 16.755 -42.875 14.375 C-41.57151611 12.52720947 -41.57151611 12.52720947 -40.24169922 10.64208984 C-29.64381486 -3.30290791 -16.10962786 -1.05067183 0 0 Z " fill="#6E8815" transform="translate(106.875,141.625)"/>
<path d="M0 0 C2.9466558 1.4733279 3.10705464 3.51845553 4.25 6.5625 C9.78832242 20.27799259 20.26919987 29.26030868 33.21484375 35.921875 C40.10605263 38.58943973 46.94701145 39.29926301 54.28344727 39.31884766 C55.16258286 39.32889328 56.04171844 39.3389389 56.94749451 39.34928894 C59.82045912 39.37989913 62.69333153 39.39709384 65.56640625 39.4140625 C67.5713733 39.43279202 69.57633262 39.45236674 71.58128357 39.4727478 C76.83366315 39.52388658 82.08606823 39.56360961 87.33856201 39.60089111 C92.7081931 39.64104568 98.07771977 39.69208557 103.44726562 39.7421875 C113.96477738 39.83873051 124.48233291 39.92219678 135 40 C135 46.6 135 53.2 135 60 C123.86386445 60.06800534 112.72786874 60.12294802 101.59157181 60.15543652 C96.41953005 60.17103598 91.24763877 60.19216887 86.07568359 60.22631836 C81.07656136 60.25911691 76.07758311 60.27689593 71.07836151 60.28463173 C69.17915331 60.29013866 67.27995222 60.30089151 65.38080597 60.31719017 C46.03067614 60.47652273 28.71695411 57.52658054 14.25 43.51171875 C3.52343591 31.53744668 -1.08474163 18.95052103 -1.1328125 3.0390625 C-1 1 -1 1 0 0 Z " fill="#7E3E1D" transform="translate(350,342)"/>
<path d="M0 0 C6.21082479 3.75612062 9.97543857 9.22404332 11.84765625 16.1796875 C13.41883443 23.96666709 11.86164687 28.63844908 8.140625 35.60546875 C4.44914348 41.16220203 -0.45786263 44.25632036 -6.70703125 46.38671875 C-14.69944058 47.55304576 -21.11881209 46.0365673 -27.70703125 41.38671875 C-33.20950894 36.42429905 -36.12976708 31.76060497 -37.11328125 24.30859375 C-37.35309867 16.19477114 -36.18362844 10.55345624 -30.70703125 4.38671875 C-21.42092926 -3.35169958 -11.19102768 -5.07065642 0 0 Z " fill="#FECF38" transform="translate(422.70703125,305.61328125)"/>
<path d="M0 0 C2.72814575 1.36407288 2.71507482 2.64872618 3.6875 5.5 C8.48795529 17.91741386 18.09072448 25.84695604 29.6796875 31.73828125 C39.52778035 35.48055653 49.73065411 35.41049931 60.125 35.625 C61.66929076 35.66326676 63.21356216 35.70232323 64.7578125 35.7421875 C68.50502913 35.83722467 72.25239417 35.92159287 76 36 C75.44493774 36.63723999 75.44493774 36.63723999 74.87866211 37.28735352 C72.27137619 40.30167883 69.74632499 43.32042766 67.37890625 46.52734375 C63.73730414 51.11350071 60.20472674 55.24426717 54.31445312 56.63330078 C39.75622337 58.16740949 25.95317507 55.62741442 14 47 C5.82310049 40.34105381 1.38598267 32.2226102 -1 22 C-1.24318895 18.93094173 -1.23569412 15.88931424 -1.1875 12.8125 C-1.18685547 12.01908203 -1.18621094 11.22566406 -1.18554688 10.40820312 C-1.15789262 6.74862306 -0.99358061 3.54170606 0 0 Z " fill="#68321A" transform="translate(1,107)"/>
<path d="M0 0 C0.65605225 0.61335205 1.31210449 1.2267041 1.98803711 1.85864258 C2.7499939 2.61890747 2.7499939 2.61890747 3.52734375 3.39453125 C4.09130859 3.95720703 4.65527344 4.51988281 5.23632812 5.09960938 C5.79771484 5.66486328 6.35910156 6.23011719 6.9375 6.8125 C7.82018555 7.68938477 7.82018555 7.68938477 8.72070312 8.58398438 C13 12.87322154 13 12.87322154 13 14 C-27.08641235 17.12715712 -27.08641235 17.12715712 -36.86328125 10.02734375 C-41.28200127 5.91754383 -45.0883791 1.30071834 -48 -4 C-48 -4.33 -48 -4.66 -48 -5 C-42.29024237 -5.29233837 -36.5806799 -5.54329252 -30.86743164 -5.75683594 C-28.92619107 -5.83512612 -26.98536366 -5.92450755 -25.04516602 -6.02539062 C-22.24792087 -6.16887588 -19.45159121 -6.27176057 -16.65234375 -6.3671875 C-15.7916478 -6.42002899 -14.93095184 -6.47287048 -14.04417419 -6.52731323 C-7.4603203 -6.69163578 -4.43902946 -4.73161607 0 0 Z " fill="#78A017" transform="translate(397,148)"/>
<path d="M0 0 C15.18 0 30.36 0 46 0 C46 6.6 46 13.2 46 20 C23.81136479 22.82942328 23.81136479 22.82942328 15.85644531 18.15136719 C9.80630527 13.22139549 4.51176142 7.37038275 0 1 C0 0.67 0 0.34 0 0 Z " fill="#68321A" transform="translate(392,143)"/>
</svg>
