<?xml version="1.0" encoding="UTF-8"?>
<svg version="1.1" xmlns="http://www.w3.org/2000/svg" width="512" height="512">
<path d="M0 0 C1.10879713 -0.00453111 2.21759427 -0.00906223 3.35999131 -0.01373065 C7.07697093 -0.02639513 10.79380441 -0.02475292 14.51080322 -0.02310181 C17.17523748 -0.0290858 19.83966027 -0.03583445 22.50408936 -0.04345703 C28.99173289 -0.06005475 35.47934008 -0.06556604 41.96700308 -0.06668179 C47.24233276 -0.06763292 52.51765048 -0.07174649 57.79297638 -0.07808304 C72.75868466 -0.09569273 87.72436428 -0.10492243 102.690083 -0.10342209 C103.89974771 -0.10330222 103.89974771 -0.10330222 105.1338501 -0.10317993 C105.9412812 -0.10309817 106.74871231 -0.10301641 107.58061102 -0.10293217 C120.66177298 -0.10211953 133.74281972 -0.12125238 146.82394835 -0.14945666 C160.26456229 -0.17820669 173.70512008 -0.19199577 187.14576554 -0.19026911 C194.68802396 -0.1896059 202.23016161 -0.19506776 209.77239227 -0.21662521 C216.19492874 -0.23486502 222.61728971 -0.23916155 229.03984091 -0.22560637 C232.31409364 -0.21909043 235.58794124 -0.22109645 238.86217499 -0.23631287 C242.41883239 -0.25176907 245.97461125 -0.24245332 249.53125 -0.22705078 C250.5563668 -0.23733791 251.58148361 -0.24762503 252.63766456 -0.25822389 C261.75596217 -0.17119794 269.72611933 2.24863948 276.48834229 8.56430054 C283.88200519 16.78786439 285.60149295 25.50188189 285.33209229 36.27914429 C284.85776594 44.66483884 281.24489705 51.67036254 275.01959229 57.26742554 C266.54105359 63.64328663 259.06469944 64.55197959 248.64459229 64.39242554 C247.5269751 64.3834021 246.40935791 64.37437866 245.25787354 64.36508179 C242.51155767 64.341609 239.76568756 64.30877281 237.01959229 64.26742554 C237.02327946 65.39755947 237.02696663 66.52769341 237.03076553 67.69207382 C237.11948649 95.16584811 237.18525854 122.63960387 237.22684097 150.11349106 C237.24748341 163.39956238 237.27563616 176.68551739 237.3213501 189.9715271 C237.36116631 201.54895917 237.38701286 213.12632279 237.39594626 224.70382142 C237.40116983 230.83643453 237.41348215 236.96885182 237.44251251 243.10140228 C237.46959908 248.86990045 237.47805091 254.63812153 237.47202301 260.40667725 C237.47312627 262.5271378 237.48112012 264.64760732 237.49641418 266.768013 C237.51623613 269.65713796 237.51155984 272.54520872 237.50061035 275.43435669 C237.51226172 276.27871395 237.52391308 277.12307121 237.53591752 277.99301505 C237.49932798 281.55039878 237.32847041 283.81577388 235.29483032 286.78942871 C232.6487958 288.50829529 231.27013646 288.76201664 228.13476562 288.7484436 C226.66245483 288.75669159 226.66245483 288.75669159 225.16040039 288.7651062 C223.55494354 288.74353455 223.55494354 288.74353455 221.91705322 288.7215271 C220.78505493 288.72211121 219.65305664 288.72269531 218.48675537 288.72329712 C214.7421816 288.72050867 210.99840214 288.68937905 207.25396729 288.65805054 C204.65893997 288.6505909 202.06390703 288.64489666 199.46887207 288.64089966 C193.33480912 288.62718354 187.20107437 288.59565303 181.0671351 288.5555017 C174.08293507 288.51077804 167.09872134 288.48879551 160.11441374 288.46871996 C145.74932001 288.42691989 131.38446629 288.35657161 117.01959229 288.26742554 C117.43703705 289.36591324 117.85448181 290.46440094 118.28457642 291.59617615 C118.83486914 293.05173595 119.385044 294.50734032 119.93511963 295.96298218 C120.20996689 296.68529274 120.48481415 297.4076033 120.76799011 298.15180206 C124.76271035 308.74315386 125.39246056 318.64653744 125.39019775 329.89608765 C125.39454043 332.30120367 125.4308705 334.70443304 125.46881104 337.10922241 C125.56953338 350.76650798 123.85016286 364.17616748 117.33209229 376.39242554 C116.99758057 377.02857788 116.66306885 377.66473022 116.31842041 378.32015991 C112.50426387 385.46380117 108.28893291 392.38904342 104.01959229 399.26742554 C104.62287354 399.29320679 105.22615479 399.31898804 105.84771729 399.34555054 C106.64693604 399.40226929 107.44615479 399.45898804 108.26959229 399.51742554 C109.05849854 399.56383179 109.84740479 399.61023804 110.66021729 399.65805054 C113.86628185 400.48610695 114.97659623 401.66674356 117.01959229 404.26742554 C117.52752686 407.45492554 117.52752686 407.45492554 117.53717041 411.26742554 C117.54417969 411.96384155 117.55118896 412.66025757 117.55841064 413.3777771 C117.57598424 415.67473485 117.56437148 417.97045575 117.55084229 420.26742554 C117.55353742 421.86638627 117.55742001 423.46534541 117.56243896 425.06430054 C117.5683331 428.41341779 117.55977421 431.76210797 117.54107666 435.11117554 C117.51828664 439.40221145 117.53141024 443.69224665 117.55536652 447.98324585 C117.56982708 451.2844292 117.56521744 454.58537564 117.55485535 457.88656616 C117.55218875 459.46859862 117.55545551 461.05065265 117.56477356 462.63265991 C117.57494407 464.84482716 117.55943419 467.05537853 117.53717041 469.26742554 C117.53398804 470.52555054 117.53080566 471.78367554 117.52752686 473.07992554 C116.91046738 476.95222956 116.07978953 477.88846945 113.01959229 480.26742554 C110.16473389 480.7707901 110.16473389 480.7707901 106.79498291 480.77536011 C104.87697876 480.79227905 104.87697876 480.79227905 102.92022705 480.80953979 C101.50542986 480.80176277 100.09063491 480.79357011 98.67584229 480.78500366 C97.18421749 480.79042445 95.69259806 480.79754688 94.20098877 480.8062439 C90.15136601 480.82448558 86.10215068 480.81740643 82.05252075 480.80472755 C77.81562192 480.79460418 73.5787581 480.80399138 69.34185791 480.81027222 C62.22655979 480.81755057 55.1114277 480.80795605 47.99615479 480.78890991 C39.76856429 480.76714073 31.54137026 480.77419197 23.31378937 480.79621553 C16.25124974 480.81436424 9.18882952 480.81693047 2.12627411 480.80646086 C-2.09253946 480.80022298 -6.31116665 480.79939828 -10.52996826 480.81260681 C-14.49621144 480.82415709 -18.4619432 480.81615516 -22.4281311 480.79302979 C-23.88419749 480.78773822 -25.34030689 480.7892642 -26.7963562 480.79808044 C-28.78282134 480.80899988 -30.76938047 480.79288254 -32.75579834 480.77536011 C-34.42382507 480.77309795 -34.42382507 480.77309795 -36.12554932 480.7707901 C-39.6549912 480.14848394 -40.83765882 479.09467817 -42.98040771 476.26742554 C-43.48834229 473.07992554 -43.48834229 473.07992554 -43.49798584 469.26742554 C-43.50499512 468.57100952 -43.51200439 467.87459351 -43.51922607 467.15707397 C-43.53679967 464.86011622 -43.52518691 462.56439533 -43.51165771 460.26742554 C-43.51435285 458.6684648 -43.51823544 457.06950567 -43.52325439 455.47055054 C-43.52914853 452.12143328 -43.52058964 448.7727431 -43.50189209 445.42367554 C-43.47910207 441.13263963 -43.49222567 436.84260442 -43.51618195 432.55160522 C-43.53064251 429.25042188 -43.52603287 425.94947543 -43.51567078 422.64828491 C-43.51300418 421.06625246 -43.51627094 419.48419843 -43.52558899 417.90219116 C-43.5357595 415.69002391 -43.52024962 413.47947254 -43.49798584 411.26742554 C-43.49480347 410.00930054 -43.49162109 408.75117554 -43.48834229 407.45492554 C-42.88985708 403.69918277 -42.01203694 402.49871014 -38.98040771 400.26742554 C-34.96064514 399.7467309 -31.02210567 400.09169954 -26.98040771 400.26742554 C-27.45600452 384.5887635 -28.6687736 369.11364092 -30.44915771 353.53305054 C-30.69265906 351.35032861 -30.93544146 349.16752637 -31.17755127 346.98464966 C-31.808327 341.31337146 -32.44801006 335.64313617 -33.08996582 329.97311401 C-33.86976186 323.07136439 -34.63931075 316.16846597 -35.40988922 309.26568222 C-36.00896537 303.90023607 -36.60964041 298.53498793 -37.21563721 293.1703186 C-37.32673325 292.18332977 -37.43782928 291.19634094 -37.55229187 290.17944336 C-37.75693096 288.36175131 -37.96241977 286.54415458 -38.16902161 284.72668457 C-43.30313893 239.02306121 -30.64691876 205.63979177 -7.77337646 166.73226929 C-4.04343606 160.38695936 -0.35409964 154.0188006 3.32275391 147.64263916 C4.31754438 145.91765191 5.31333635 144.19324234 6.30914307 142.46884155 C7.21188965 140.90347656 7.21188965 140.90347656 8.13287354 139.30648804 C8.66694824 138.38045776 9.20102295 137.45442749 9.75128174 136.50033569 C11.95345594 132.62332216 12.1666656 130.30832046 12.22491455 125.79818726 C12.23481415 125.1346524 12.24471375 124.47111755 12.25491333 123.78747559 C12.28654145 121.59072457 12.31129083 119.39395191 12.33599854 117.19711304 C12.35656694 115.67538892 12.37756338 114.15367054 12.39897156 112.63195801 C12.454204 108.62397904 12.50360807 104.6159484 12.55181885 100.60787964 C12.60202533 96.51908767 12.65771584 92.43037086 12.71295166 88.34164429 C12.82054756 80.31696822 12.92198933 72.29222934 13.01959229 64.26742554 C12.00759766 64.29884644 12.00759766 64.29884644 10.97515869 64.3309021 C7.86512662 64.4149714 4.75533469 64.46636998 1.64459229 64.51742554 C0.58369385 64.55094116 -0.47720459 64.58445679 -1.57025146 64.61898804 C-11.19092986 64.73703317 -19.28811837 62.65869106 -26.44915771 55.97055054 C-33.84282062 47.74698669 -35.56230838 39.03296919 -35.29290771 28.25570679 C-34.81858137 19.87001223 -31.20571248 12.86448854 -24.98040771 7.26742554 C-16.98633503 1.25588288 -9.83645384 -0.02946261 0 0 Z " fill="#000000" transform="translate(138.98040771484375,15.732574462890625)"/>
<path d="M0 0 C63.36 0 126.72 0 192 0 C192 61.05 192 122.1 192 185 C186.72 185.99 181.44 186.98 176 188 C165.84555356 191.35088249 157.2969372 196.27042182 149 203 C147.948125 203.78375 146.89625 204.5675 145.8125 205.375 C130.86871136 219.32253606 124.57939418 236.31333204 121 256 C107.47 256 93.94 256 80 256 C79.97421875 251.55660156 79.9484375 247.11320313 79.921875 242.53515625 C79.89015625 238.97198689 79.85450367 235.40890473 79.81620789 231.84580231 C79.7769733 228.09566986 79.74452485 224.34577092 79.72900391 220.59545898 C79.71375909 216.97711968 79.67917789 213.35941629 79.63169098 209.74136162 C79.6169571 208.36726882 79.60896361 206.99308518 79.60811615 205.61891365 C79.5981173 197.52869413 79.12796793 191.06604426 75 184 C74.54238281 183.19046875 74.08476562 182.3809375 73.61328125 181.546875 C68.60760078 174.63212119 62.11996512 171.32290094 54 169 C45.8350577 168.11896482 39.0550012 168.7027412 32 173 C30.93458984 173.63615234 30.93458984 173.63615234 29.84765625 174.28515625 C24.44154586 177.89929709 21.70392577 182.15016059 19 188 C12.57234807 187.27234129 6.40148684 186.1639067 0 185 C0 123.95 0 62.9 0 0 Z " fill="#00CBB2" transform="translate(168,32)"/>
<path d="M0 0 C0.33 0 0.66 0 1 0 C1.00331015 0.59414577 1.00662029 1.18829155 1.01003075 1.80044174 C1.09124312 16.25581585 1.18332978 30.7110904 1.28752708 45.16631699 C1.33765373 52.15675416 1.38409661 59.1471796 1.421875 66.13769531 C1.45832777 72.88100615 1.50503601 79.62417402 1.55806351 86.36737823 C1.57662914 88.94301371 1.59172902 91.51867652 1.60334396 94.09435272 C1.62016906 97.69552221 1.64919565 101.29639844 1.68115234 104.89746094 C1.68331253 105.9677655 1.68547272 107.03807007 1.68769836 108.14080811 C1.69886185 109.12234863 1.71002533 110.10388916 1.7215271 111.11517334 C1.72705786 111.96691006 1.73258862 112.81864677 1.73828697 113.6961937 C2.02636902 116.23212114 2.64307754 117.84724476 4 120 C6.73678725 121.36839363 9.04264424 121.21634818 12.1015625 121.31640625 C13.31328125 121.35830078 14.525 121.40019531 15.7734375 121.44335938 C17.04445312 121.48267578 18.31546875 121.52199219 19.625 121.5625 C20.90375 121.60568359 22.1825 121.64886719 23.5 121.69335938 C26.66655348 121.79969886 29.83318753 121.90172833 33 122 C33 124.64 33 127.28 33 130 C38.28 130 43.56 130 49 130 C48.9685791 126.18477783 48.9685791 126.18477783 48.93652344 122.29248047 C48.87020292 113.88272219 48.82604439 105.47295228 48.79275131 97.06300163 C48.77188908 91.96471177 48.74359617 86.86669017 48.69824219 81.76855469 C48.65473604 76.84725437 48.63085263 71.92621185 48.62049103 67.00473404 C48.61310824 65.12845934 48.59869127 63.25219854 48.57707977 61.37603378 C48.54798223 58.74500951 48.54404662 56.11504637 48.54589844 53.48388672 C48.53151733 52.7106456 48.51713623 51.93740448 48.50231934 51.14073181 C48.54193294 45.92882183 49.71826438 43.01717415 53 39 C57.39070026 35.13200215 59.89793436 33.66776711 65.84765625 33.796875 C71.11612966 34.2940812 74.79237921 36.33759048 78.18920898 40.28955078 C82.27003851 45.94889148 81.62332621 51.64557736 81.34765625 58.3671875 C81.3141492 60.35232226 81.28076351 62.33746462 81.25307465 64.32268906 C81.22198753 66.41282385 81.18009755 68.502551 81.13693237 70.59246826 C80.66562598 95.52631806 82.21600734 116.52194196 93.6340332 139.14355469 C97.70977939 147.66656281 97.44180476 156.70406873 97.4375 166 C97.43860275 167.0331282 97.43860275 167.0331282 97.43972778 168.08712769 C97.40882479 179.10604481 96.40083146 188.80977957 92 199 C91.50371094 200.15242187 91.00742188 201.30484375 90.49609375 202.4921875 C86.79982696 210.34786776 82.25242572 217.70145744 77.64404297 225.04858398 C77.18658691 225.77891846 76.72913086 226.50925293 76.2578125 227.26171875 C75.8467627 227.91100342 75.43571289 228.56028809 75.01220703 229.22924805 C73.84594228 231.13507031 73.84594228 231.13507031 73 234 C41.32 234 9.64 234 -23 234 C-23.33 224.76 -23.66 215.52 -24 206 C-24.65030876 199.10257177 -25.31436831 192.24793794 -26.14288521 185.37579346 C-26.51992639 182.24184122 -26.88134232 179.10638026 -27.23948669 175.97021484 C-28.25779429 167.07736175 -29.30349778 158.18778344 -30.35522461 149.29882812 C-38.25350793 82.35956871 -38.25350793 82.35956871 -30 57 C-29.67902344 55.99936523 -29.67902344 55.99936523 -29.3515625 54.97851562 C-24.00030888 38.90823856 -14.39246085 24.27507061 -5.875 9.75 C-5.30644287 8.77861084 -4.73788574 7.80722168 -4.15209961 6.80639648 C-3.36138062 5.47137085 -3.36138062 5.47137085 -2.5546875 4.109375 C-2.08530762 3.31499023 -1.61592773 2.52060547 -1.13232422 1.70214844 C-0.75865723 1.14043945 -0.38499023 0.57873047 0 0 Z " fill="#FEC376" transform="translate(151,182)"/>
<path d="M0 0 C15.84 0 31.68 0 48 0 C48 47.52 48 95.04 48 144 C54.6 144 61.2 144 68 144 C72 148 72 148 72.75 151.625 C72.40064398 157.74436521 67.89570945 161.64958629 64 166 C62.64522167 167.58544319 61.30239957 169.18050746 59.96020508 170.77661133 C58.55333683 172.44838857 57.13847937 174.11314772 55.72265625 175.77734375 C53.28064733 178.65728912 50.88319791 181.57109667 48.5 184.5 C45.11497047 188.65214054 41.69907433 192.77603279 38.25 196.875 C37.80205078 197.41060547 37.35410156 197.94621094 36.89257812 198.49804688 C29.19343983 207.61574854 29.19343983 207.61574854 25.9375 208.6640625 C22.30086458 208.59074324 20.51780634 208.39831257 17.5625 206.125 C16.69612587 205.09346425 15.84411737 204.04982665 15 203 C13.58622558 201.45568059 12.16921489 199.91432116 10.75 198.375 C6.82494333 193.99007695 3.07902356 189.48543174 -0.62109375 184.91015625 C-2.73028618 182.32994548 -4.87434136 179.78836363 -7.04223633 177.2578125 C-8.90611216 175.07660488 -10.75130373 172.88015463 -12.59179688 170.67919922 C-13.54390448 169.54386702 -14.50108886 168.41277604 -15.46289062 167.28564453 C-16.89155288 165.60213724 -18.29176057 163.8983416 -19.6875 162.1875 C-20.51636719 161.19105469 -21.34523438 160.19460938 -22.19921875 159.16796875 C-24.6152344 154.9176679 -24.65039158 152.8363705 -24 148 C-22.02 146.02 -22.02 146.02 -20 144 C-13.4 144 -6.8 144 0 144 C0 96.48 0 48.96 0 0 Z " fill="#000000" transform="translate(416,128)"/>
<path d="M0 0 C15.84 0 31.68 0 48 0 C48 47.52 48 95.04 48 144 C54.6 144 61.2 144 68 144 C72 148 72 148 72.75 151.625 C72.40064398 157.74436521 67.89570945 161.64958629 64 166 C62.64522167 167.58544319 61.30239957 169.18050746 59.96020508 170.77661133 C58.55333683 172.44838857 57.13847937 174.11314772 55.72265625 175.77734375 C53.28064733 178.65728912 50.88319791 181.57109667 48.5 184.5 C45.11497047 188.65214054 41.69907433 192.77603279 38.25 196.875 C37.80205078 197.41060547 37.35410156 197.94621094 36.89257812 198.49804688 C29.19343983 207.61574854 29.19343983 207.61574854 25.9375 208.6640625 C22.30086458 208.59074324 20.51780634 208.39831257 17.5625 206.125 C16.69612587 205.09346425 15.84411737 204.04982665 15 203 C13.58622558 201.45568059 12.16921489 199.91432116 10.75 198.375 C6.82494333 193.99007695 3.07902356 189.48543174 -0.62109375 184.91015625 C-2.73028618 182.32994548 -4.87434136 179.78836363 -7.04223633 177.2578125 C-8.90611216 175.07660488 -10.75130373 172.88015463 -12.59179688 170.67919922 C-13.54390448 169.54386702 -14.50108886 168.41277604 -15.46289062 167.28564453 C-16.89155288 165.60213724 -18.29176057 163.8983416 -19.6875 162.1875 C-20.51636719 161.19105469 -21.34523438 160.19460937 -22.19921875 159.16796875 C-24.6152344 154.9176679 -24.65039158 152.8363705 -24 148 C-22.02 146.02 -22.02 146.02 -20 144 C-13.4 144 -6.8 144 0 144 C0 96.48 0 48.96 0 0 Z " fill="#000000" transform="translate(48,16)"/>
<path d="M0 0 C42.24 0 84.48 0 128 0 C128 15.84 128 31.68 128 48 C85.76 48 43.52 48 0 48 C0 32.16 0 16.32 0 0 Z " fill="#3D9AE2" transform="translate(112,432)"/>
<path d="M0 0 C11.44049162 6.27831857 17.32670062 15.63635187 21.375 27.78125 C22.6488585 41.40669853 20.15817021 52.40971259 11.25 63.28125 C6.34967196 68.31401934 0.83654777 71.17107675 -5.625 73.78125 C-6.73875 74.235 -7.8525 74.68875 -9 75.15625 C-21.84236141 77.37045024 -32.30972303 75.43803604 -43 67.90625 C-51.61043626 60.84676188 -56.92871861 51.945551 -58.625 40.78125 C-59.63625631 28.13225713 -56.55392113 18.66020741 -48.625 8.78125 C-35.85080703 -5.17209924 -16.87076768 -7.83285642 0 0 Z " fill="#FDD221" transform="translate(282.625,68.21875)"/>
<path d="M0 0 C12.10177908 9.01320304 20.16550126 22.17045737 23 37 C24.5502315 53.44877216 20.96338609 67.61531196 11 81 C10.57847656 81.59167969 10.15695312 82.18335938 9.72265625 82.79296875 C1.83759525 93.12054023 -12.36058725 100.07626548 -25 102 C-42.57824382 103.64336761 -57.51833234 98.93505209 -71.3125 87.6875 C-82.31795184 77.41270057 -88.17675997 63.34804715 -89.25390625 48.5 C-89.73508874 33.35051272 -85.00258508 19.89018219 -75.25 8.25 C-55.19597852 -13.05977615 -24.19367527 -16.15404593 0 0 Z M-65.6875 22.14453125 C-71.97303816 31.03033669 -73.95849441 40.22891912 -73 51 C-70.54478217 63.20633863 -65.14061211 72.68046043 -55 80 C-45.17158842 85.91182652 -35.05787143 87.69842559 -23.73828125 85.3125 C-12.17327943 81.75859419 -3.30631487 75.46936031 2.765625 64.9375 C7.61547496 54.96584588 9.02030336 45.41630347 6.07421875 34.6015625 C1.69383665 23.27249608 -5.75127622 13.93679485 -16.91796875 8.8125 C-35.04929103 1.73686204 -53.52731561 7.17560862 -65.6875 22.14453125 Z " fill="#010302" transform="translate(297,58)"/>
<path d="M0 0 C5.28 0 10.56 0 16 0 C16.00808685 1.92044128 16.01617371 3.84088257 16.02450562 5.81951904 C16.10188321 23.88976152 16.18948275 41.95992871 16.28752708 60.03007126 C16.33767303 69.32081197 16.38411572 78.61154376 16.421875 87.90234375 C16.454791 95.99913434 16.49462004 104.09585618 16.54279006 112.19257092 C16.56805895 116.4806802 16.58983908 120.76874385 16.60334396 125.05690765 C16.61616078 129.09193496 16.63821104 133.12680579 16.66738319 137.16174698 C16.67646195 138.64360235 16.6821499 140.12548291 16.68421364 141.60736465 C16.68753389 143.62912743 16.7041833 145.65085528 16.7215271 147.67254639 C16.72705786 148.80450817 16.73258862 149.93646996 16.73828697 151.10273361 C16.99663236 153.96271894 17.4213504 155.62398554 19 158 C21.43387753 159.21693876 23.41838846 159.31959896 26.125 159.5625 C27.03507812 159.64628906 27.94515625 159.73007812 28.8828125 159.81640625 C29.58148438 159.87699219 30.28015625 159.93757812 31 160 C26.5496316 166.23051576 21.63087847 171.9715555 16.58325195 177.71899414 C13.9371984 180.73687493 11.33661748 183.73038685 9 187 C5.23618138 185.49278852 3.41536518 183.35083069 0.9375 180.1875 C-0.22265625 178.72763672 -0.22265625 178.72763672 -1.40625 177.23828125 C-2.02693359 176.45638428 -2.02693359 176.45638428 -2.66015625 175.65869141 C-5.54214841 172.09086073 -8.5527572 168.62837 -11.54516602 165.15307617 C-15 161.10750327 -15 161.10750327 -15 160 C-14.15695312 159.90203125 -13.31390625 159.8040625 -12.4453125 159.703125 C-10.80175781 159.47882813 -10.80175781 159.47882813 -9.125 159.25 C-7.48917969 159.04117188 -7.48917969 159.04117188 -5.8203125 158.828125 C-2.95758812 158.3064815 -2.95758812 158.3064815 -1.84113503 156.34370804 C-0.7675262 153.35224345 -0.7370682 150.85329086 -0.7215271 147.67254639 C-0.71036362 146.37126801 -0.69920013 145.06998962 -0.68769836 143.72927856 C-0.68533346 142.28924589 -0.6831578 140.8492129 -0.68115234 139.40917969 C-0.67185326 137.89136216 -0.66168462 136.37354975 -0.65071106 134.85574341 C-0.62339465 130.7362878 -0.6082568 126.61686641 -0.59528303 122.49734402 C-0.57965967 118.19181324 -0.55286692 113.88635243 -0.5272522 109.58087158 C-0.48045033 101.42827542 -0.44371303 93.27566612 -0.41057932 85.1230042 C-0.37236789 75.84130359 -0.32295517 66.55967323 -0.27259517 57.27803183 C-0.16925436 38.18540513 -0.08039827 19.09273614 0 0 Z " fill="#FDA632" transform="translate(432,128)"/>
<path d="M0 0 C5.28 0 10.56 0 16 0 C16.00808685 1.92044128 16.01617371 3.84088257 16.02450562 5.81951904 C16.10188321 23.88976152 16.18948275 41.95992871 16.28752708 60.03007126 C16.33767303 69.32081197 16.38411572 78.61154376 16.421875 87.90234375 C16.454791 95.99913434 16.49462004 104.09585618 16.54279006 112.19257092 C16.56805895 116.4806802 16.58983908 120.76874385 16.60334396 125.05690765 C16.61616078 129.09193496 16.63821104 133.12680579 16.66738319 137.16174698 C16.67646195 138.64360235 16.6821499 140.12548291 16.68421364 141.60736465 C16.68753389 143.62912743 16.7041833 145.65085528 16.7215271 147.67254639 C16.72705786 148.80450817 16.73258862 149.93646996 16.73828697 151.10273361 C16.99663236 153.96271894 17.4213504 155.62398554 19 158 C21.43387753 159.21693876 23.41838846 159.31959896 26.125 159.5625 C27.03507812 159.64628906 27.94515625 159.73007813 28.8828125 159.81640625 C29.58148438 159.87699219 30.28015625 159.93757812 31 160 C26.5496316 166.23051576 21.63087847 171.9715555 16.58325195 177.71899414 C13.9371984 180.73687493 11.33661748 183.73038685 9 187 C5.23618138 185.49278852 3.41536518 183.35083069 0.9375 180.1875 C-0.22265625 178.72763672 -0.22265625 178.72763672 -1.40625 177.23828125 C-2.02693359 176.45638428 -2.02693359 176.45638428 -2.66015625 175.65869141 C-5.54214841 172.09086073 -8.5527572 168.62837 -11.54516602 165.15307617 C-15 161.10750327 -15 161.10750327 -15 160 C-14.15695313 159.90203125 -13.31390625 159.8040625 -12.4453125 159.703125 C-10.80175781 159.47882813 -10.80175781 159.47882813 -9.125 159.25 C-7.48917969 159.04117188 -7.48917969 159.04117188 -5.8203125 158.828125 C-2.95758812 158.3064815 -2.95758812 158.3064815 -1.84113503 156.34370804 C-0.7675262 153.35224345 -0.7370682 150.85329086 -0.7215271 147.67254639 C-0.71036362 146.37126801 -0.69920013 145.06998962 -0.68769836 143.72927856 C-0.68533346 142.28924589 -0.6831578 140.8492129 -0.68115234 139.40917969 C-0.67185326 137.89136216 -0.66168462 136.37354975 -0.65071106 134.85574341 C-0.62339465 130.7362878 -0.6082568 126.61686641 -0.59528303 122.49734402 C-0.57965967 118.19181324 -0.55286692 113.88635243 -0.5272522 109.58087158 C-0.48045033 101.42827542 -0.44371303 93.27566612 -0.41057932 85.1230042 C-0.37236789 75.84130359 -0.32295517 66.55967323 -0.27259517 57.27803183 C-0.16925436 38.18540513 -0.08039827 19.09273614 0 0 Z " fill="#FDA632" transform="translate(64,16)"/>
<path d="M0 0 C0 18.15 0 36.3 0 55 C-18.15 55 -36.3 55 -55 55 C-53.30965217 38.09652171 -45.85863721 24.09349146 -32.80078125 13.06640625 C-22.88506968 5.75063021 -12.56002382 0 0 0 Z " fill="#00B19C" transform="translate(360,233)"/>
<path d="M0 0 C63.36 0 126.72 0 192 0 C192 2.64 192 5.28 192 8 C128.64 8 65.28 8 0 8 C0 5.36 0 2.72 0 0 Z " fill="#00B39D" transform="translate(168,32)"/>
<path d="M0 0 C3.320625 0.103125 6.64125 0.20625 10.0625 0.3125 C10.0625 10.8725 10.0625 21.4325 10.0625 32.3125 C6.72125 32.395 3.38 32.4775 -0.0625 32.5625 C-1.10422363 32.59891602 -2.14594727 32.63533203 -3.21923828 32.67285156 C-8.9902573 32.7416731 -12.40539275 32.25564878 -16.9375 28.3125 C-21.2376048 23.54751901 -22.31275376 19.87190696 -22.2109375 13.58984375 C-21.60629575 8.55404177 -18.5978132 5.90243771 -14.96875 2.66015625 C-10.24098223 -0.64712239 -5.56912197 -0.24549847 0 0 Z " fill="#87868E" transform="translate(141.9375,31.6875)"/>
<path d="M0 0 C3.155625 -0.0825 6.31125 -0.165 9.5625 -0.25 C10.5429126 -0.28641602 11.5233252 -0.32283203 12.53344727 -0.36035156 C18.5934502 -0.43653937 22.0544466 0.45364489 27 4 C31.18729258 8.62806022 32.36001082 11.49353374 32.28125 17.6171875 C31.68622128 22.65840306 29.13549207 25.94759272 25.4375 29.375 C21.97563397 31.68291068 19.39413528 32.12352952 15.33203125 32.09765625 C14.52741455 32.09515869 13.72279785 32.09266113 12.89379883 32.09008789 C11.36855591 32.07643188 11.36855591 32.07643188 9.8125 32.0625 C4.9553125 32.0315625 4.9553125 32.0315625 0 32 C0 21.44 0 10.88 0 0 Z " fill="#87868E" transform="translate(376,32)"/>
<path d="M0 0 C9 1 9 1 16 4 C16 20.83 16 37.66 16 55 C10.72 55 5.44 55 0 55 C0 36.85 0 18.7 0 0 Z " fill="#00B29C" transform="translate(168,233)"/>
</svg>
