<svg xmlns="http://www.w3.org/2000/svg" xmlns:xlink="http://www.w3.org/1999/xlink" width="200" zoomAndPan="magnify" viewBox="0 0 150 52.499999" height="70" preserveAspectRatio="xMidYMid meet" version="1.2"><defs/><g id="855cfe88fa"><g style="fill:#ffde59;fill-opacity:1;"><g transform="translate(4.171364, 35.288913)"><path style="stroke:none" d="M 5.171875 -13.875 C 5.171875 -13.269531 5.425781 -12.800781 5.9375 -12.46875 C 6.445312 -12.132812 7.21875 -11.820312 8.25 -11.53125 C 9.65625 -11.125 10.859375 -10.671875 11.859375 -10.171875 C 12.859375 -9.671875 13.617188 -9.050781 14.140625 -8.3125 C 14.660156 -7.582031 14.921875 -6.679688 14.921875 -5.609375 C 14.921875 -4.484375 14.648438 -3.476562 14.109375 -2.59375 C 13.578125 -1.707031 12.789062 -1.003906 11.75 -0.484375 C 10.707031 0.0351562 9.429688 0.296875 7.921875 0.296875 C 6.117188 0.296875 4.566406 -0.109375 3.265625 -0.921875 C 1.960938 -1.734375 1.03125 -2.820312 0.46875 -4.1875 L 3.875 -5.953125 C 4.25 -5.117188 4.796875 -4.46875 5.515625 -4 C 6.242188 -3.53125 7.085938 -3.296875 8.046875 -3.296875 C 8.910156 -3.296875 9.609375 -3.484375 10.140625 -3.859375 C 10.679688 -4.242188 10.953125 -4.726562 10.953125 -5.3125 C 10.953125 -5.6875 10.84375 -6.007812 10.625 -6.28125 C 10.414062 -6.550781 10.046875 -6.796875 9.515625 -7.015625 C 8.992188 -7.242188 8.269531 -7.5 7.34375 -7.78125 C 6.320312 -8.09375 5.421875 -8.429688 4.640625 -8.796875 C 3.859375 -9.160156 3.207031 -9.59375 2.6875 -10.09375 C 2.25 -10.519531 1.894531 -11.03125 1.625 -11.625 C 1.351562 -12.226562 1.21875 -12.898438 1.21875 -13.640625 C 1.21875 -14.773438 1.519531 -15.769531 2.125 -16.625 C 2.738281 -17.488281 3.550781 -18.164062 4.5625 -18.65625 C 5.570312 -19.144531 6.675781 -19.390625 7.875 -19.390625 C 9.46875 -19.390625 10.84375 -19.023438 12 -18.296875 C 13.164062 -17.578125 14.023438 -16.566406 14.578125 -15.265625 L 11.3125 -13.484375 C 11.007812 -14.253906 10.535156 -14.835938 9.890625 -15.234375 C 9.242188 -15.628906 8.515625 -15.828125 7.703125 -15.828125 C 6.910156 -15.828125 6.289062 -15.644531 5.84375 -15.28125 C 5.394531 -14.914062 5.171875 -14.445312 5.171875 -13.875 Z M 5.171875 -13.875 "/></g></g><g style="fill:#ffde59;fill-opacity:1;"><g transform="translate(21.365946, 35.288913)"><path style="stroke:none" d="M 3.953125 0 L -0.03125 0 L 7.265625 -19.09375 L 12.03125 -19.09375 L 19.34375 0 L 15.265625 0 L 13.828125 -3.859375 L 5.359375 -3.859375 Z M 9.609375 -15.265625 L 6.734375 -7.515625 L 12.484375 -7.515625 Z M 9.609375 -15.265625 "/></g></g><g style="fill:#ffde59;fill-opacity:1;"><g transform="translate(41.974959, 35.288913)"><path style="stroke:none" d="M 6.171875 -7.734375 L 6.171875 0 L 2.21875 0 L 2.21875 -19.09375 L 6.171875 -19.09375 L 6.171875 -11.5625 L 14.171875 -11.5625 L 14.171875 -19.09375 L 18.125 -19.09375 L 18.125 0 L 14.171875 0 L 14.171875 -7.734375 Z M 6.171875 -7.734375 "/></g></g><g style="fill:#ffde59;fill-opacity:1;"><g transform="translate(63.608304, 35.288913)"><path style="stroke:none" d="M 3.953125 0 L -0.03125 0 L 7.265625 -19.09375 L 12.03125 -19.09375 L 19.34375 0 L 15.265625 0 L 13.828125 -3.859375 L 5.359375 -3.859375 Z M 9.609375 -15.265625 L 6.734375 -7.515625 L 12.484375 -7.515625 Z M 9.609375 -15.265625 "/></g></g><g style="fill:#ffde59;fill-opacity:1;"><g transform="translate(84.217316, 35.288913)"><path style="stroke:none" d="M 6.125 -13.171875 L 6.125 0 L 2.21875 0 L 2.21875 -19.09375 L 6.734375 -19.09375 L 15.03125 -6.640625 L 15.03125 -19.09375 L 18.921875 -19.09375 L 18.921875 0 L 14.90625 0 Z M 6.125 -13.171875 "/></g></g><g style="fill:#ffde59;fill-opacity:1;"><g transform="translate(106.679876, 35.288913)"><path style="stroke:none" d="M 5.171875 -13.875 C 5.171875 -13.269531 5.425781 -12.800781 5.9375 -12.46875 C 6.445312 -12.132812 7.21875 -11.820312 8.25 -11.53125 C 9.65625 -11.125 10.859375 -10.671875 11.859375 -10.171875 C 12.859375 -9.671875 13.617188 -9.050781 14.140625 -8.3125 C 14.660156 -7.582031 14.921875 -6.679688 14.921875 -5.609375 C 14.921875 -4.484375 14.648438 -3.476562 14.109375 -2.59375 C 13.578125 -1.707031 12.789062 -1.003906 11.75 -0.484375 C 10.707031 0.0351562 9.429688 0.296875 7.921875 0.296875 C 6.117188 0.296875 4.566406 -0.109375 3.265625 -0.921875 C 1.960938 -1.734375 1.03125 -2.820312 0.46875 -4.1875 L 3.875 -5.953125 C 4.25 -5.117188 4.796875 -4.46875 5.515625 -4 C 6.242188 -3.53125 7.085938 -3.296875 8.046875 -3.296875 C 8.910156 -3.296875 9.609375 -3.484375 10.140625 -3.859375 C 10.679688 -4.242188 10.953125 -4.726562 10.953125 -5.3125 C 10.953125 -5.6875 10.84375 -6.007812 10.625 -6.28125 C 10.414062 -6.550781 10.046875 -6.796875 9.515625 -7.015625 C 8.992188 -7.242188 8.269531 -7.5 7.34375 -7.78125 C 6.320312 -8.09375 5.421875 -8.429688 4.640625 -8.796875 C 3.859375 -9.160156 3.207031 -9.59375 2.6875 -10.09375 C 2.25 -10.519531 1.894531 -11.03125 1.625 -11.625 C 1.351562 -12.226562 1.21875 -12.898438 1.21875 -13.640625 C 1.21875 -14.773438 1.519531 -15.769531 2.125 -16.625 C 2.738281 -17.488281 3.550781 -18.164062 4.5625 -18.65625 C 5.570312 -19.144531 6.675781 -19.390625 7.875 -19.390625 C 9.46875 -19.390625 10.84375 -19.023438 12 -18.296875 C 13.164062 -17.578125 14.023438 -16.566406 14.578125 -15.265625 L 11.3125 -13.484375 C 11.007812 -14.253906 10.535156 -14.835938 9.890625 -15.234375 C 9.242188 -15.628906 8.515625 -15.828125 7.703125 -15.828125 C 6.910156 -15.828125 6.289062 -15.644531 5.84375 -15.28125 C 5.394531 -14.914062 5.171875 -14.445312 5.171875 -13.875 Z M 5.171875 -13.875 "/></g></g><g style="fill:#ffde59;fill-opacity:1;"><g transform="translate(123.874459, 35.288913)"><path style="stroke:none" d="M 1.046875 -9.53125 C 1.046875 -10.894531 1.304688 -12.175781 1.828125 -13.375 C 2.347656 -14.570312 3.0625 -15.617188 3.96875 -16.515625 C 4.882812 -17.421875 5.945312 -18.125 7.15625 -18.625 C 8.363281 -19.132812 9.65625 -19.390625 11.03125 -19.390625 C 12.394531 -19.390625 13.671875 -19.140625 14.859375 -18.640625 C 16.054688 -18.148438 17.101562 -17.460938 18 -16.578125 C 18.90625 -15.691406 19.609375 -14.65625 20.109375 -13.46875 C 20.617188 -12.28125 20.875 -11.003906 20.875 -9.640625 C 20.875 -8.253906 20.617188 -6.957031 20.109375 -5.75 C 19.597656 -4.550781 18.878906 -3.492188 17.953125 -2.578125 C 17.035156 -1.671875 15.972656 -0.960938 14.765625 -0.453125 C 13.566406 0.046875 12.285156 0.296875 10.921875 0.296875 C 9.554688 0.296875 8.273438 0.046875 7.078125 -0.453125 C 5.890625 -0.960938 4.84375 -1.664062 3.9375 -2.5625 C 3.03125 -3.457031 2.320312 -4.5 1.8125 -5.6875 C 1.300781 -6.875 1.046875 -8.15625 1.046875 -9.53125 Z M 5.09375 -9.5625 C 5.09375 -8.46875 5.351562 -7.460938 5.875 -6.546875 C 6.394531 -5.628906 7.101562 -4.894531 8 -4.34375 C 8.894531 -3.800781 9.882812 -3.53125 10.96875 -3.53125 C 12.082031 -3.53125 13.082031 -3.800781 13.96875 -4.34375 C 14.851562 -4.894531 15.554688 -5.628906 16.078125 -6.546875 C 16.597656 -7.460938 16.859375 -8.46875 16.859375 -9.5625 C 16.859375 -10.664062 16.597656 -11.664062 16.078125 -12.5625 C 15.554688 -13.46875 14.851562 -14.191406 13.96875 -14.734375 C 13.082031 -15.285156 12.082031 -15.5625 10.96875 -15.5625 C 9.882812 -15.5625 8.894531 -15.285156 8 -14.734375 C 7.101562 -14.191406 6.394531 -13.46875 5.875 -12.5625 C 5.351562 -11.664062 5.09375 -10.664062 5.09375 -9.5625 Z M 5.09375 -9.5625 "/></g></g></g></svg>